  0
SECTION
  2
HEADER
  9
$ACADVER
  1
AC1015
  9
$ACADMAINTVER
 70
     6
  9
$DWGCODEPAGE
  3
ANSI_1252
  9
$INSBASE
 10
0.0
 20
0.0
 30
0.0
  9
$EXTMIN
 10
0.0
 20
0.0
 30
0.0
  9
$EXTMAX
 10
213.114914
 20
0.0
 30
2.0
  9
$LIMMIN
 10
0.0
 20
0.0
  9
$LIMMAX
 10
420.0
 20
297.0
  9
$ORTHOMODE
 70
     0
  9
$REGENMODE
 70
     1
  9
$FILLMODE
 70
     1
  9
$QTEXTMODE
 70
     0
  9
$MIRRTEXT
 70
     1
  9
$LTSCALE
 40
1.0
  9
$ATTMODE
 70
     1
  9
$TEXTSIZE
 40
2.5
  9
$TRACEWID
 40
1.0
  9
$TEXTSTYLE
  7
Standard
  9
$CLAYER
  8
0
  9
$CELTYPE
  6
ByLayer
  9
$CECOLOR
 62
   256
  9
$CELTSCALE
 40
1.0
  9
$DISPSILH
 70
     0
  9
$DIMSCALE
 40
1.0
  9
$DIMASZ
 40
2.5
  9
$DIMEXO
 40
0.625
  9
$DIMDLI
 40
3.75
  9
$DIMRND
 40
0.0
  9
$DIMDLE
 40
0.0
  9
$DIMEXE
 40
1.25
  9
$DIMTP
 40
0.0
  9
$DIMTM
 40
0.0
  9
$DIMTXT
 40
2.5
  9
$DIMCEN
 40
2.5
  9
$DIMTSZ
 40
0.0
  9
$DIMTOL
 70
     0
  9
$DIMLIM
 70
     0
  9
$DIMTIH
 70
     0
  9
$DIMTOH
 70
     0
  9
$DIMSE1
 70
     0
  9
$DIMSE2
 70
     0
  9
$DIMTAD
 70
     1
  9
$DIMZIN
 70
     8
  9
$DIMBLK
  1

  9
$DIMASO
 70
     1
  9
$DIMSHO
 70
     1
  9
$DIMPOST
  1

  9
$DIMAPOST
  1

  9
$DIMALT
 70
     0
  9
$DIMALTD
 70
     3
  9
$DIMALTF
 40
0.03937
  9
$DIMLFAC
 40
1.0
  9
$DIMTOFL
 70
     1
  9
$DIMTVP
 40
0.0
  9
$DIMTIX
 70
     0
  9
$DIMSOXD
 70
     0
  9
$DIMSAH
 70
     0
  9
$DIMBLK1
  1

  9
$DIMBLK2
  1

  9
$DIMSTYLE
  2
STANDARD
  9
$DIMCLRD
 70
     0
  9
$DIMCLRE
 70
     0
  9
$DIMCLRT
 70
     0
  9
$DIMTFAC
 40
1.0
  9
$DIMGAP
 40
0.625
  9
$DIMJUST
 70
     0
  9
$DIMSD1
 70
     0
  9
$DIMSD2
 70
     0
  9
$DIMTOLJ
 70
     0
  9
$DIMTZIN
 70
     8
  9
$DIMALTZ
 70
     0
  9
$DIMALTTZ
 70
     0
  9
$DIMUPT
 70
     0
  9
$DIMDEC
 70
     2
  9
$DIMTDEC
 70
     2
  9
$DIMALTU
 70
     2
  9
$DIMALTTD
 70
     3
  9
$DIMTXSTY
  7
Standard
  9
$DIMAUNIT
 70
     0
  9
$DIMADEC
 70
     0
  9
$DIMALTRND
 40
0.0
  9
$DIMAZIN
 70
     0
  9
$DIMDSEP
 70
    44
  9
$DIMATFIT
 70
     0
  9
$DIMFRAC
 70
     0
  9
$DIMLDRBLK
  1

  9
$DIMLUNIT
 70
     2
  9
$DIMLWD
 70
    -2
  9
$DIMLWE
 70
    -2
  9
$DIMTMOVE
 70
     0
  9
$LUNITS
 70
     2
  9
$LUPREC
 70
     4
  9
$SKETCHINC
 40
1.0
  9
$FILLETRAD
 40
2.5
  9
$AUNITS
 70
     0
  9
$AUPREC
 70
     0
  9
$MENU
  1
.
  9
$ELEVATION
 40
0.0
  9
$PELEVATION
 40
0.0
  9
$THICKNESS
 40
0.0
  9
$LIMCHECK
 70
     0
  9
$CHAMFERA
 40
2.5
  9
$CHAMFERB
 40
2.5
  9
$CHAMFERC
 40
0.0
  9
$CHAMFERD
 40
0.0
  9
$SKPOLY
 70
     0
  9
$TDCREATE
 40
2447893.041666667
  9
$TDUCREATE
 40
0.0
  9
$TDUPDATE
 40
2458931.734827824
  9
$TDUUPDATE
 40
2458931.693161157
  9
$TDINDWG
 40
0.0
  9
$TDUSRTIMER
 40
0.0
  9
$USRTIMER
 70
     1
  9
$ANGBASE
 50
0.0
  9
$ANGDIR
 70
     0
  9
$PDMODE
 70
     0
  9
$PDSIZE
 40
0.0
  9
$PLINEWID
 40
0.0
  9
$SPLFRAME
 70
     0
  9
$SPLINETYPE
 70
     6
  9
$SPLINESEGS
 70
     8
  9
$HANDSEED
  5
1D3
  9
$SURFTAB1
 70
     6
  9
$SURFTAB2
 70
     6
  9
$SURFTYPE
 70
     6
  9
$SURFU
 70
     6
  9
$SURFV
 70
     6
  9
$UCSBASE
  2

  9
$UCSNAME
  2

  9
$UCSORG
 10
0.0
 20
0.0
 30
0.0
  9
$UCSXDIR
 10
1.0
 20
0.0
 30
0.0
  9
$UCSYDIR
 10
0.0
 20
1.0
 30
0.0
  9
$UCSORTHOREF
  2

  9
$UCSORTHOVIEW
 70
     1
  9
$UCSORGTOP
 10
0.0
 20
0.0
 30
0.0
  9
$UCSORGBOTTOM
 10
0.0
 20
0.0
 30
0.0
  9
$UCSORGLEFT
 10
0.0
 20
0.0
 30
0.0
  9
$UCSORGRIGHT
 10
0.0
 20
0.0
 30
0.0
  9
$UCSORGFRONT
 10
0.0
 20
0.0
 30
0.0
  9
$UCSORGBACK
 10
0.0
 20
0.0
 30
0.0
  9
$PUCSBASE
  2

  9
$PUCSNAME
  2

  9
$PUCSORG
 10
0.0
 20
0.0
 30
0.0
  9
$PUCSXDIR
 10
1.0
 20
0.0
 30
0.0
  9
$PUCSYDIR
 10
0.0
 20
1.0
 30
0.0
  9
$PUCSORTHOREF
  2

  9
$PUCSORTHOVIEW
 70
     0
  9
$PUCSORGTOP
 10
0.0
 20
0.0
 30
0.0
  9
$PUCSORGBOTTOM
 10
0.0
 20
0.0
 30
0.0
  9
$PUCSORGLEFT
 10
0.0
 20
0.0
 30
0.0
  9
$PUCSORGRIGHT
 10
0.0
 20
0.0
 30
0.0
  9
$PUCSORGFRONT
 10
0.0
 20
0.0
 30
0.0
  9
$PUCSORGBACK
 10
0.0
 20
0.0
 30
0.0
  9
$USERI1
 70
     0
  9
$USERI2
 70
     0
  9
$USERI3
 70
     0
  9
$USERI4
 70
     0
  9
$USERI5
 70
     0
  9
$USERR1
 40
0.0
  9
$USERR2
 40
0.0
  9
$USERR3
 40
0.0
  9
$USERR4
 40
0.0
  9
$USERR5
 40
0.0
  9
$WORLDVIEW
 70
     1
  9
$SHADEDGE
 70
     3
  9
$SHADEDIF
 70
    70
  9
$TILEMODE
 70
     1
  9
$MAXACTVP
 70
    64
  9
$PINSBASE
 10
0.0
 20
0.0
 30
0.0
  9
$PLIMCHECK
 70
     0
  9
$PEXTMIN
 10
0.0
 20
0.0
 30
0.0
  9
$PEXTMAX
 10
213.114914
 20
0.0
 30
2.0
  9
$PLIMMIN
 10
0.0
 20
0.0
  9
$PLIMMAX
 10
420.0
 20
297.0
  9
$UNITMODE
 70
     0
  9
$VISRETAIN
 70
     0
  9
$PLINEGEN
 70
     0
  9
$PSLTSCALE
 70
     1
  9
$TREEDEPTH
 70
  3020
  9
$CMLSTYLE
  2
Standard
  9
$CMLJUST
 70
     0
  9
$CMLSCALE
 40
20.0
  9
$PROXYGRAPHICS
 70
     1
  9
$MEASUREMENT
 70
     1
  9
$CELWEIGHT
370
    -1
  9
$ENDCAPS
280
     0
  9
$JOINSTYLE
280
     0
  9
$LWDISPLAY
290
     0
  9
$INSUNITS
 70
     0
  9
$HYPERLINKBASE
  1

  9
$STYLESHEET
  1

  9
$XEDIT
290
     1
  9
$CEPSNTYPE
380
     0
  9
$PSTYLEMODE
290
     0
  9
$FINGERPRINTGUID
  2
{D6F2A7D5-47C1-4F5F-8531-49CAB79D7493}
  9
$VERSIONGUID
  2
{FAEB1C32-E019-11D5-929B-00C0DF256EC4}
  9
$EXTNAMES
290
     1
  9
$PSVPSCALE
 40
0.0
  9
$OLESTARTUP
290
     0
  0
ENDSEC
  0
SECTION
  2
CLASSES
  0
CLASS
  1
ACDBDICTIONARYWDFLT
  2
AcDbDictionaryWithDefault
  3
ObjectDBX Classes
 90
        0
280
     0
281
     0
  0
CLASS
  1
VISUALSTYLE
  2
AcDbVisualStyle
  3
ObjectDBX Classes
 90
     4095
280
     0
281
     0
  0
CLASS
  1
MATERIAL
  2
AcDbMaterial
  3
ObjectDBX Classes
 90
     1153
280
     0
281
     0
  0
CLASS
  1
SCALE
  2
AcDbScale
  3
ObjectDBX Classes
 90
     1153
280
     0
281
     0
  0
CLASS
  1
SUN
  2
AcDbSun
  3
SCENEOE
 90
     1153
280
     0
281
     0
  0
CLASS
  1
ACDBPLACEHOLDER
  2
AcDbPlaceHolder
  3
ObjectDBX Classes
 90
        0
280
     0
281
     0
  0
CLASS
  1
LAYOUT
  2
AcDbLayout
  3
ObjectDBX Classes
 90
        0
280
     0
281
     0
  0
ENDSEC
  0
SECTION
  2
TABLES
  0
TABLE
  2
VPORT
  5
8
330
0
100
AcDbSymbolTable
 70
     1
  0
VPORT
  5
29
330
8
100
AcDbSymbolTableRecord
100
AcDbViewportTableRecord
  2
*Active
 70
     0
 10
0.0
 20
0.0
 11
1.0
 21
1.0
 12
10.429907
 22
4.5
 13
0.0
 23
0.0
 14
0.5
 24
0.5
 15
0.5
 25
0.5
 16
0.0
 26
0.0
 36
1.0
 17
0.0
 27
0.0
 37
0.0
 40
9.0
 41
1.972973
 42
50.0
 43
0.0
 44
0.0
 50
0.0
 51
0.0
 71
     0
 72
   100
 73
     1
 74
     3
 75
     0
 76
     0
 77
     0
 78
     0
281
     0
 65
     1
110
0.0
120
0.0
130
0.0
111
1.0
121
0.0
131
0.0
112
0.0
122
1.0
132
0.0
 79
     0
146
0.0
  0
ENDTAB
  0
TABLE
  2
LTYPE
  5
5
330
0
100
AcDbSymbolTable
 70
     1
  0
LTYPE
  5
14
330
5
100
AcDbSymbolTableRecord
100
AcDbLinetypeTableRecord
  2
ByBlock
 70
     0
  3

 72
    65
 73
     0
 40
0.0
  0
LTYPE
  5
15
330
5
100
AcDbSymbolTableRecord
100
AcDbLinetypeTableRecord
  2
ByLayer
 70
     0
  3

 72
    65
 73
     0
 40
0.0
  0
LTYPE
  5
16
330
5
100
AcDbSymbolTableRecord
100
AcDbLinetypeTableRecord
  2
Continuous
 70
     0
  3
Solid line
 72
    65
 73
     0
 40
0.0
  0
ENDTAB
  0
TABLE
  2
LAYER
  5
2
330
0
100
AcDbSymbolTable
 70
     1
  0
LAYER
  5
10
330
2
100
AcDbSymbolTableRecord
100
AcDbLayerTableRecord
  2
0
 70
     0
 62
     7
  6
Continuous
370
    13
390
F
  0
ENDTAB
  0
TABLE
  2
STYLE
  5
3
330
0
100
AcDbSymbolTable
 70
     2
  0
STYLE
  5
11
330
3
100
AcDbSymbolTableRecord
100
AcDbTextStyleTableRecord
  2
Standard
 70
     0
 40
0.0
 41
1.0
 50
0.0
 71
     0
 42
2.5
  3
isocp.shx
  4

  0
STYLE
  5
6A
330
3
100
AcDbSymbolTableRecord
100
AcDbTextStyleTableRecord
  2
GDT
 70
     0
 40
0.0
 41
1.0
 50
0.0
 71
     0
 42
0.2
  3
gdt.shx
  4

  0
ENDTAB
  0
TABLE
  2
VIEW
  5
6
330
0
100
AcDbSymbolTable
 70
     0
  0
ENDTAB
  0
TABLE
  2
UCS
  5
7
330
0
100
AcDbSymbolTable
 70
     0
  0
ENDTAB
  0
TABLE
  2
APPID
  5
9
330
0
100
AcDbSymbolTable
 70
     1
  0
APPID
  5
12
330
9
100
AcDbSymbolTableRecord
100
AcDbRegAppTableRecord
  2
ACAD
 70
     0
  0
ENDTAB
  0
TABLE
  2
DIMSTYLE
  5
A
330
0
100
AcDbSymbolTable
 70
     1
100
AcDbDimStyleTable
  0
DIMSTYLE
105
27
330
A
100
AcDbSymbolTableRecord
100
AcDbDimStyleTableRecord
  2
STANDARD
 70
     0
 41
2.5
 42
0.625
 43
3.75
 44
1.25
 73
     0
 74
     0
 77
     1
 78
     8
140
2.5
141
2.5
143
0.03937
147
0.625
171
     3
172
     1
178
     0
271
     2
272
     2
274
     3
278
    44
283
     0
284
     8
289
     0
340
0
  0
ENDTAB
  0
TABLE
  2
BLOCK_RECORD
  5
1
330
0
100
AcDbSymbolTable
 70
     3
  0
BLOCK_RECORD
  5
1F
330
1
100
AcDbSymbolTableRecord
100
AcDbBlockTableRecord
  2
*Model_Space
340
22
  0
BLOCK_RECORD
  5
1B
330
1
100
AcDbSymbolTableRecord
100
AcDbBlockTableRecord
  2
*Paper_Space
340
1E
  0
BLOCK_RECORD
  5
23
330
1
100
AcDbSymbolTableRecord
100
AcDbBlockTableRecord
  2
*Paper_Space0
340
26
  0
BLOCK_RECORD
  5
6B
330
1
100
AcDbSymbolTableRecord
100
AcDbBlockTableRecord
  2
BLOCK1
340
0
102
{BLKREFS
331
1D1
102
}
  0
BLOCK_RECORD
  5
6E
330
1
100
AcDbSymbolTableRecord
100
AcDbBlockTableRecord
  2
BLOCK2
340
0
102
{BLKREFS
331
1D2
102
}
  0
ENDTAB
  0
ENDSEC
  0
SECTION
  2
BLOCKS
  0
BLOCK
  5
20
330
1F
100
AcDbEntity
  8
0
100
AcDbBlockBegin
  2
*Model_Space
 70
     0
 10
0.0
 20
0.0
 30
0.0
  3
*Model_Space
  1
*Model_Space
  0
ENDBLK
  5
21
330
1F
100
AcDbEntity
  8
0
100
AcDbBlockEnd
  0
BLOCK
  5
1C
330
1B
100
AcDbEntity
 67
     1
  8
0
100
AcDbBlockBegin
  2
*Paper_Space
 70
     0
 10
0.0
 20
0.0
 30
0.0
  3
*Paper_Space
  1
*Paper_Space
  0
ENDBLK
  5
1D
330
1B
100
AcDbEntity
 67
     1
  8
0
100
AcDbBlockEnd
  0
BLOCK
  5
24
330
23
100
AcDbEntity
  8
0
100
AcDbBlockBegin
  2
*Paper_Space0
 70
     0
 10
0.0
 20
0.0
 30
0.0
  3
*Paper_Space0
  1
*Paper_Space0
  0
ENDBLK
  5
25
330
23
100
AcDbEntity
  8
0
100
AcDbBlockEnd
  0
BLOCK
  5
6C
330
6B
100
AcDbEntity
  8
0
100
AcDbBlockBegin
  2
BLOCK1
 70
     0
 10
0.0
 20
0.0
 30
0.0
  3
BLOCK1
  1
BLOCK1
  0
LINE
  5
71
330
6B
100
AcDbEntity
  8
0
 62
     7
370
    35
100
AcDbLine
 10
217.972639
 20
-35.0
 30
0.0
 11
273.404137
 21
-35.0
 31
0.0
  0
ARC
  5
72
330
6B
100
AcDbEntity
  8
0
 62
     7
370
    35
100
AcDbCircle
 10
273.404137
 20
-25.0
 30
0.0
 40
10.0
100
AcDbArc
 50
270.0
 51
0.0
  0
LINE
  5
73
330
6B
100
AcDbEntity
  8
0
 62
     7
370
    35
100
AcDbLine
 10
283.404137
 20
-5.0
 30
0.0
 11
283.404137
 21
-25.0
 31
0.0
  0
ARC
  5
74
330
6B
100
AcDbEntity
  8
0
 62
     7
370
    35
100
AcDbCircle
 10
273.404137
 20
-5.0
 30
0.0
 40
10.0
100
AcDbArc
 50
0.0
 51
90.0
  0
LINE
  5
75
330
6B
100
AcDbEntity
  8
0
 62
     7
370
    35
100
AcDbLine
 10
217.972639
 20
5.0
 30
0.0
 11
273.404137
 21
5.0
 31
0.0
  0
ARC
  5
76
330
6B
100
AcDbEntity
  8
0
 62
     7
370
    35
100
AcDbCircle
 10
217.972639
 20
-5.0
 30
0.0
 40
10.0
100
AcDbArc
 50
90.0
 51
131.409622
  0
ARC
  5
77
330
6B
100
AcDbEntity
  8
0
 62
     7
370
    35
100
AcDbCircle
 10
204.743883
 20
10.0
 30
0.0
 40
10.00000000000011
100
AcDbArc
 50
270.0
 51
311.409622
  0
LINE
  5
78
330
6B
100
AcDbEntity
  8
0
 62
     7
370
    35
100
AcDbLine
 10
95.164332
 20
0.0
 30
0.0
 11
204.743883
 21
0.0
 31
0.0
  0
LINE
  5
79
330
6B
100
AcDbEntity
  8
0
 62
     7
370
    35
100
AcDbLine
 10
95.164332
 20
-30.0
 30
0.0
 11
204.743883
 21
-30.0
 31
0.0
  0
ARC
  5
7A
330
6B
100
AcDbEntity
  8
0
 62
     7
370
    35
100
AcDbCircle
 10
204.743883
 20
-40.0
 30
0.0
 40
10.00000000000011
100
AcDbArc
 50
48.590378
 51
90.0
  0
ARC
  5
7B
330
6B
100
AcDbEntity
  8
0
 62
     7
370
    35
100
AcDbCircle
 10
217.972639
 20
-25.0
 30
0.0
 40
10.0
100
AcDbArc
 50
228.590378
 51
270.0
  0
ARC
  5
7C
330
6B
100
AcDbEntity
  8
0
 62
     7
370
    35
100
AcDbCircle
 10
96.90583
 20
-15.0
 30
0.0
 40
1.50000000000061
100
AcDbArc
 50
180.0
 51
0.0
  0
ARC
  5
7D
330
6B
100
AcDbEntity
  8
0
 62
     7
370
    35
100
AcDbCircle
 10
96.90583
 20
-15.0
 30
0.0
 40
1.50000000000061
100
AcDbArc
 50
0.0
 51
180.0
  0
LINE
  5
7E
330
6B
100
AcDbEntity
  8
0
 62
     7
370
    35
100
AcDbLine
 10
235.404137
 20
-25.5
 30
0.0
 11
235.404137
 21
-4.5
 31
0.0
  0
LINE
  5
7F
330
6B
100
AcDbEntity
  8
0
 62
     7
370
    35
100
AcDbLine
 10
235.404137
 20
-4.5
 30
0.0
 11
236.404137
 21
-4.5
 31
0.0
  0
LINE
  5
80
330
6B
100
AcDbEntity
  8
0
 62
     7
370
    35
100
AcDbLine
 10
236.404137
 20
-4.5
 30
0.0
 11
236.404137
 21
-25.5
 31
0.0
  0
LINE
  5
81
330
6B
100
AcDbEntity
  8
0
 62
     7
370
    35
100
AcDbLine
 10
235.404137
 20
-25.5
 30
0.0
 11
236.404137
 21
-25.5
 31
0.0
  0
LINE
  5
82
330
6B
100
AcDbEntity
  8
0
 62
     7
370
    35
100
AcDbLine
 10
266.404137
 20
-26.0
 30
0.0
 11
266.404137
 21
-4.0
 31
0.0
  0
LINE
  5
83
330
6B
100
AcDbEntity
  8
0
 62
     7
370
    35
100
AcDbLine
 10
266.404137
 20
-4.0
 30
0.0
 11
268.404137
 21
-4.0
 31
0.0
  0
LINE
  5
84
330
6B
100
AcDbEntity
  8
0
 62
     7
370
    35
100
AcDbLine
 10
268.404137
 20
-4.0
 30
0.0
 11
268.404137
 21
-26.0
 31
0.0
  0
LINE
  5
85
330
6B
100
AcDbEntity
  8
0
 62
     7
370
    35
100
AcDbLine
 10
266.404137
 20
-26.0
 30
0.0
 11
268.404137
 21
-26.0
 31
0.0
  0
LINE
  5
86
330
6B
100
AcDbEntity
  8
0
 62
     7
370
    35
100
AcDbLine
 10
95.164332
 20
0.0
 30
0.0
 11
73.990858
 21
0.0
 31
0.0
  0
LINE
  5
87
330
6B
100
AcDbEntity
  8
0
 62
     7
370
    35
100
AcDbLine
 10
95.164332
 20
-30.0
 30
0.0
 11
73.990858
 21
-30.0
 31
0.0
  0
LINE
  5
88
330
6B
100
AcDbEntity
  8
0
 62
     7
370
    35
100
AcDbLine
 10
73.990858
 20
0.0
 30
0.0
 11
-110.520666
 21
0.0
 31
0.0
  0
LINE
  5
89
330
6B
100
AcDbEntity
  8
0
 62
     7
370
    35
100
AcDbLine
 10
73.990858
 20
-30.0
 30
0.0
 11
-110.520666
 21
-30.0
 31
0.0
  0
LINE
  5
8A
330
6B
100
AcDbEntity
  8
0
 62
     7
370
    35
100
AcDbLine
 10
-110.520666
 20
0.0
 30
0.0
 11
-131.69414
 21
0.0
 31
0.0
  0
LINE
  5
8B
330
6B
100
AcDbEntity
  8
0
 62
     7
370
    35
100
AcDbLine
 10
-110.520666
 20
-30.0
 30
0.0
 11
-131.69414
 21
-30.0
 31
0.0
  0
LINE
  5
8C
330
6B
100
AcDbEntity
  8
0
 62
     7
370
    35
100
AcDbLine
 10
-448.433945
 20
-26.0
 30
0.0
 11
-446.933945
 21
-26.0
 31
0.0
  0
LINE
  5
8D
330
6B
100
AcDbEntity
  8
0
 62
     7
370
    35
100
AcDbLine
 10
-446.933945
 20
-26.0
 30
0.0
 11
-446.933945
 21
-24.2
 31
0.0
  0
LINE
  5
8E
330
6B
100
AcDbEntity
  8
0
 62
     7
370
    35
100
AcDbLine
 10
-446.933945
 20
-24.2
 30
0.0
 11
-445.933945
 21
-24.2
 31
0.0
  0
LINE
  5
8F
330
6B
100
AcDbEntity
  8
0
 62
     7
370
    35
100
AcDbLine
 10
-445.933945
 20
-24.2
 30
0.0
 11
-441.933945
 21
-26.0
 31
0.0
  0
LINE
  5
90
330
6B
100
AcDbEntity
  8
0
 62
     7
370
    35
100
AcDbLine
 10
-441.933945
 20
-26.0
 30
0.0
 11
-440.433945
 21
-26.0
 31
0.0
  0
LINE
  5
91
330
6B
100
AcDbEntity
  8
0
 62
     7
370
    35
100
AcDbLine
 10
-440.433945
 20
-26.0
 30
0.0
 11
-440.433945
 21
-24.2
 31
0.0
  0
LINE
  5
92
330
6B
100
AcDbEntity
  8
0
 62
     7
370
    35
100
AcDbLine
 10
-440.433945
 20
-24.2
 30
0.0
 11
-439.433945
 21
-24.2
 31
0.0
  0
LINE
  5
93
330
6B
100
AcDbEntity
  8
0
 62
     7
370
    35
100
AcDbLine
 10
-439.433945
 20
-24.2
 30
0.0
 11
-435.433945
 21
-26.0
 31
0.0
  0
LINE
  5
94
330
6B
100
AcDbEntity
  8
0
 62
     7
370
    35
100
AcDbLine
 10
-435.433945
 20
-26.0
 30
0.0
 11
-433.933945
 21
-26.0
 31
0.0
  0
LINE
  5
95
330
6B
100
AcDbEntity
  8
0
 62
     7
370
    35
100
AcDbLine
 10
-433.933945
 20
-26.0
 30
0.0
 11
-433.933945
 21
-24.2
 31
0.0
  0
LINE
  5
96
330
6B
100
AcDbEntity
  8
0
 62
     7
370
    35
100
AcDbLine
 10
-433.933945
 20
-24.2
 30
0.0
 11
-432.933945
 21
-24.2
 31
0.0
  0
LINE
  5
97
330
6B
100
AcDbEntity
  8
0
 62
     7
370
    35
100
AcDbLine
 10
-432.933945
 20
-24.2
 30
0.0
 11
-428.933945
 21
-26.0
 31
0.0
  0
LINE
  5
98
330
6B
100
AcDbEntity
  8
0
 62
     7
370
    35
100
AcDbLine
 10
-428.933945
 20
-26.0
 30
0.0
 11
-427.433945
 21
-26.0
 31
0.0
  0
LINE
  5
99
330
6B
100
AcDbEntity
  8
0
 62
     7
370
    35
100
AcDbLine
 10
-427.433945
 20
-26.0
 30
0.0
 11
-427.433945
 21
-24.2
 31
0.0
  0
LINE
  5
9A
330
6B
100
AcDbEntity
  8
0
 62
     7
370
    35
100
AcDbLine
 10
-427.433945
 20
-24.2
 30
0.0
 11
-426.433945
 21
-24.2
 31
0.0
  0
LINE
  5
9B
330
6B
100
AcDbEntity
  8
0
 62
     7
370
    35
100
AcDbLine
 10
-426.433945
 20
-24.2
 30
0.0
 11
-422.433945
 21
-26.0
 31
0.0
  0
LINE
  5
9C
330
6B
100
AcDbEntity
  8
0
 62
     7
370
    35
100
AcDbLine
 10
-422.433945
 20
-26.0
 30
0.0
 11
-420.933945
 21
-26.0
 31
0.0
  0
LINE
  5
9D
330
6B
100
AcDbEntity
  8
0
 62
     7
370
    35
100
AcDbLine
 10
-420.933945
 20
-26.0
 30
0.0
 11
-420.933945
 21
-24.2
 31
0.0
  0
LINE
  5
9E
330
6B
100
AcDbEntity
  8
0
 62
     7
370
    35
100
AcDbLine
 10
-420.933945
 20
-24.2
 30
0.0
 11
-419.933945
 21
-24.2
 31
0.0
  0
LINE
  5
9F
330
6B
100
AcDbEntity
  8
0
 62
     7
370
    35
100
AcDbLine
 10
-419.933945
 20
-24.2
 30
0.0
 11
-415.933945
 21
-26.0
 31
0.0
  0
LINE
  5
A0
330
6B
100
AcDbEntity
  8
0
 62
     7
370
    35
100
AcDbLine
 10
-415.933945
 20
-26.0
 30
0.0
 11
-414.433945
 21
-26.0
 31
0.0
  0
LINE
  5
A1
330
6B
100
AcDbEntity
  8
0
 62
     7
370
    35
100
AcDbLine
 10
-414.433945
 20
-26.0
 30
0.0
 11
-414.433945
 21
-24.2
 31
0.0
  0
LINE
  5
A2
330
6B
100
AcDbEntity
  8
0
 62
     7
370
    35
100
AcDbLine
 10
-414.433945
 20
-24.2
 30
0.0
 11
-413.433945
 21
-24.2
 31
0.0
  0
LINE
  5
A3
330
6B
100
AcDbEntity
  8
0
 62
     7
370
    35
100
AcDbLine
 10
-413.433945
 20
-24.2
 30
0.0
 11
-409.433945
 21
-26.0
 31
0.0
  0
LINE
  5
A4
330
6B
100
AcDbEntity
  8
0
 62
     7
370
    35
100
AcDbLine
 10
-409.433945
 20
-26.0
 30
0.0
 11
-407.933945
 21
-26.0
 31
0.0
  0
LINE
  5
A5
330
6B
100
AcDbEntity
  8
0
 62
     7
370
    35
100
AcDbLine
 10
-407.933945
 20
-26.0
 30
0.0
 11
-407.933945
 21
-24.2
 31
0.0
  0
LINE
  5
A6
330
6B
100
AcDbEntity
  8
0
 62
     7
370
    35
100
AcDbLine
 10
-407.933945
 20
-24.2
 30
0.0
 11
-406.933945
 21
-24.2
 31
0.0
  0
LINE
  5
A7
330
6B
100
AcDbEntity
  8
0
 62
     7
370
    35
100
AcDbLine
 10
-406.933945
 20
-24.2
 30
0.0
 11
-402.933945
 21
-26.0
 31
0.0
  0
LINE
  5
A8
330
6B
100
AcDbEntity
  8
0
 62
     7
370
    35
100
AcDbLine
 10
-402.933945
 20
-26.0
 30
0.0
 11
-401.433945
 21
-26.0
 31
0.0
  0
LINE
  5
A9
330
6B
100
AcDbEntity
  8
0
 62
     7
370
    35
100
AcDbLine
 10
-401.433945
 20
-26.0
 30
0.0
 11
-401.433945
 21
-24.2
 31
0.0
  0
LINE
  5
AA
330
6B
100
AcDbEntity
  8
0
 62
     7
370
    35
100
AcDbLine
 10
-401.433945
 20
-24.2
 30
0.0
 11
-400.433945
 21
-24.2
 31
0.0
  0
LINE
  5
AB
330
6B
100
AcDbEntity
  8
0
 62
     7
370
    35
100
AcDbLine
 10
-400.433945
 20
-24.2
 30
0.0
 11
-396.433945
 21
-26.0
 31
0.0
  0
LINE
  5
AC
330
6B
100
AcDbEntity
  8
0
 62
     7
370
    35
100
AcDbLine
 10
-396.433945
 20
-26.0
 30
0.0
 11
-394.933945
 21
-26.0
 31
0.0
  0
LINE
  5
AD
330
6B
100
AcDbEntity
  8
0
 62
     7
370
    35
100
AcDbLine
 10
-394.933945
 20
-26.0
 30
0.0
 11
-394.933945
 21
-24.2
 31
0.0
  0
LINE
  5
AE
330
6B
100
AcDbEntity
  8
0
 62
     7
370
    35
100
AcDbLine
 10
-394.933945
 20
-24.2
 30
0.0
 11
-393.933945
 21
-24.2
 31
0.0
  0
LINE
  5
AF
330
6B
100
AcDbEntity
  8
0
 62
     7
370
    35
100
AcDbLine
 10
-393.933945
 20
-24.2
 30
0.0
 11
-389.933945
 21
-26.0
 31
0.0
  0
LINE
  5
B0
330
6B
100
AcDbEntity
  8
0
 62
     7
370
    35
100
AcDbLine
 10
-389.933945
 20
-26.0
 30
0.0
 11
-388.433945
 21
-26.0
 31
0.0
  0
LINE
  5
B1
330
6B
100
AcDbEntity
  8
0
 62
     7
370
    35
100
AcDbLine
 10
-388.433945
 20
-26.0
 30
0.0
 11
-388.433945
 21
-24.2
 31
0.0
  0
LINE
  5
B2
330
6B
100
AcDbEntity
  8
0
 62
     7
370
    35
100
AcDbLine
 10
-388.433945
 20
-24.2
 30
0.0
 11
-387.433945
 21
-24.2
 31
0.0
  0
LINE
  5
B3
330
6B
100
AcDbEntity
  8
0
 62
     7
370
    35
100
AcDbLine
 10
-387.433945
 20
-24.2
 30
0.0
 11
-383.433945
 21
-26.0
 31
0.0
  0
LINE
  5
B4
330
6B
100
AcDbEntity
  8
0
 62
     7
370
    35
100
AcDbLine
 10
-383.433945
 20
-26.0
 30
0.0
 11
-381.933945
 21
-26.0
 31
0.0
  0
LINE
  5
B5
330
6B
100
AcDbEntity
  8
0
 62
     7
370
    35
100
AcDbLine
 10
-381.933945
 20
-26.0
 30
0.0
 11
-381.933945
 21
-24.2
 31
0.0
  0
LINE
  5
B6
330
6B
100
AcDbEntity
  8
0
 62
     7
370
    35
100
AcDbLine
 10
-381.933945
 20
-24.2
 30
0.0
 11
-380.933945
 21
-24.2
 31
0.0
  0
LINE
  5
B7
330
6B
100
AcDbEntity
  8
0
 62
     7
370
    35
100
AcDbLine
 10
-380.933945
 20
-24.2
 30
0.0
 11
-376.933945
 21
-26.0
 31
0.0
  0
LINE
  5
B8
330
6B
100
AcDbEntity
  8
0
 62
     7
370
    35
100
AcDbLine
 10
-376.933945
 20
-26.0
 30
0.0
 11
-375.433945
 21
-26.0
 31
0.0
  0
LINE
  5
B9
330
6B
100
AcDbEntity
  8
0
 62
     7
370
    35
100
AcDbLine
 10
-375.433945
 20
-26.0
 30
0.0
 11
-375.433945
 21
-24.2
 31
0.0
  0
LINE
  5
BA
330
6B
100
AcDbEntity
  8
0
 62
     7
370
    35
100
AcDbLine
 10
-375.433945
 20
-24.2
 30
0.0
 11
-374.433945
 21
-24.2
 31
0.0
  0
LINE
  5
BB
330
6B
100
AcDbEntity
  8
0
 62
     7
370
    35
100
AcDbLine
 10
-374.433945
 20
-24.2
 30
0.0
 11
-370.433945
 21
-26.0
 31
0.0
  0
LINE
  5
BC
330
6B
100
AcDbEntity
  8
0
 62
     7
370
    35
100
AcDbLine
 10
-370.433945
 20
-26.0
 30
0.0
 11
-368.933945
 21
-26.0
 31
0.0
  0
LINE
  5
BD
330
6B
100
AcDbEntity
  8
0
 62
     7
370
    35
100
AcDbLine
 10
-368.933945
 20
-26.0
 30
0.0
 11
-368.933945
 21
-24.2
 31
0.0
  0
LINE
  5
BE
330
6B
100
AcDbEntity
  8
0
 62
     7
370
    35
100
AcDbLine
 10
-368.933945
 20
-24.2
 30
0.0
 11
-367.933945
 21
-24.2
 31
0.0
  0
LINE
  5
BF
330
6B
100
AcDbEntity
  8
0
 62
     7
370
    35
100
AcDbLine
 10
-367.933945
 20
-24.2
 30
0.0
 11
-363.933945
 21
-26.0
 31
0.0
  0
LINE
  5
C0
330
6B
100
AcDbEntity
  8
0
 62
     7
370
    35
100
AcDbLine
 10
-363.933945
 20
-26.0
 30
0.0
 11
-362.433945
 21
-26.0
 31
0.0
  0
LINE
  5
C1
330
6B
100
AcDbEntity
  8
0
 62
     7
370
    35
100
AcDbLine
 10
-362.433945
 20
-26.0
 30
0.0
 11
-362.433945
 21
-24.2
 31
0.0
  0
LINE
  5
C2
330
6B
100
AcDbEntity
  8
0
 62
     7
370
    35
100
AcDbLine
 10
-362.433945
 20
-24.2
 30
0.0
 11
-361.433945
 21
-24.2
 31
0.0
  0
LINE
  5
C3
330
6B
100
AcDbEntity
  8
0
 62
     7
370
    35
100
AcDbLine
 10
-361.433945
 20
-24.2
 30
0.0
 11
-357.433945
 21
-26.0
 31
0.0
  0
LINE
  5
C4
330
6B
100
AcDbEntity
  8
0
 62
     7
370
    35
100
AcDbLine
 10
-357.433945
 20
-26.0
 30
0.0
 11
-355.933945
 21
-26.0
 31
0.0
  0
LINE
  5
C5
330
6B
100
AcDbEntity
  8
0
 62
     7
370
    35
100
AcDbLine
 10
-355.933945
 20
-26.0
 30
0.0
 11
-355.933945
 21
-24.2
 31
0.0
  0
LINE
  5
C6
330
6B
100
AcDbEntity
  8
0
 62
     7
370
    35
100
AcDbLine
 10
-355.933945
 20
-24.2
 30
0.0
 11
-354.933945
 21
-24.2
 31
0.0
  0
LINE
  5
C7
330
6B
100
AcDbEntity
  8
0
 62
     7
370
    35
100
AcDbLine
 10
-354.933945
 20
-24.2
 30
0.0
 11
-350.933945
 21
-26.0
 31
0.0
  0
LINE
  5
C8
330
6B
100
AcDbEntity
  8
0
 62
     7
370
    35
100
AcDbLine
 10
-350.933945
 20
-26.0
 30
0.0
 11
-349.433945
 21
-26.0
 31
0.0
  0
LINE
  5
C9
330
6B
100
AcDbEntity
  8
0
 62
     7
370
    35
100
AcDbLine
 10
-349.433945
 20
-26.0
 30
0.0
 11
-349.433945
 21
-24.2
 31
0.0
  0
LINE
  5
CA
330
6B
100
AcDbEntity
  8
0
 62
     7
370
    35
100
AcDbLine
 10
-349.433945
 20
-24.2
 30
0.0
 11
-348.433945
 21
-24.2
 31
0.0
  0
LINE
  5
CB
330
6B
100
AcDbEntity
  8
0
 62
     7
370
    35
100
AcDbLine
 10
-348.433945
 20
-24.2
 30
0.0
 11
-344.433945
 21
-26.0
 31
0.0
  0
LINE
  5
CC
330
6B
100
AcDbEntity
  8
0
 62
     7
370
    35
100
AcDbLine
 10
-344.433945
 20
-26.0
 30
0.0
 11
-342.933945
 21
-26.0
 31
0.0
  0
LINE
  5
CD
330
6B
100
AcDbEntity
  8
0
 62
     7
370
    35
100
AcDbLine
 10
-342.933945
 20
-26.0
 30
0.0
 11
-342.933945
 21
-24.2
 31
0.0
  0
LINE
  5
CE
330
6B
100
AcDbEntity
  8
0
 62
     7
370
    35
100
AcDbLine
 10
-342.933945
 20
-24.2
 30
0.0
 11
-341.933945
 21
-24.2
 31
0.0
  0
LINE
  5
CF
330
6B
100
AcDbEntity
  8
0
 62
     7
370
    35
100
AcDbLine
 10
-341.933945
 20
-24.2
 30
0.0
 11
-337.933945
 21
-26.0
 31
0.0
  0
LINE
  5
D0
330
6B
100
AcDbEntity
  8
0
 62
     7
370
    35
100
AcDbLine
 10
-337.933945
 20
-26.0
 30
0.0
 11
-336.433945
 21
-26.0
 31
0.0
  0
LINE
  5
D1
330
6B
100
AcDbEntity
  8
0
 62
     7
370
    35
100
AcDbLine
 10
-336.433945
 20
-26.0
 30
0.0
 11
-336.433945
 21
-24.2
 31
0.0
  0
LINE
  5
D2
330
6B
100
AcDbEntity
  8
0
 62
     7
370
    35
100
AcDbLine
 10
-336.433945
 20
-24.2
 30
0.0
 11
-335.433945
 21
-24.2
 31
0.0
  0
LINE
  5
D3
330
6B
100
AcDbEntity
  8
0
 62
     7
370
    35
100
AcDbLine
 10
-335.433945
 20
-24.2
 30
0.0
 11
-331.433945
 21
-26.0
 31
0.0
  0
LINE
  5
D4
330
6B
100
AcDbEntity
  8
0
 62
     7
370
    35
100
AcDbLine
 10
-331.433945
 20
-26.0
 30
0.0
 11
-329.933945
 21
-26.0
 31
0.0
  0
LINE
  5
D5
330
6B
100
AcDbEntity
  8
0
 62
     7
370
    35
100
AcDbLine
 10
-329.933945
 20
-26.0
 30
0.0
 11
-329.933945
 21
-24.2
 31
0.0
  0
LINE
  5
D6
330
6B
100
AcDbEntity
  8
0
 62
     7
370
    35
100
AcDbLine
 10
-329.933945
 20
-24.2
 30
0.0
 11
-328.933945
 21
-24.2
 31
0.0
  0
LINE
  5
D7
330
6B
100
AcDbEntity
  8
0
 62
     7
370
    35
100
AcDbLine
 10
-328.933945
 20
-24.2
 30
0.0
 11
-324.933945
 21
-26.0
 31
0.0
  0
LINE
  5
D8
330
6B
100
AcDbEntity
  8
0
 62
     7
370
    35
100
AcDbLine
 10
-324.933945
 20
-26.0
 30
0.0
 11
-323.433945
 21
-26.0
 31
0.0
  0
LINE
  5
D9
330
6B
100
AcDbEntity
  8
0
 62
     7
370
    35
100
AcDbLine
 10
-323.433945
 20
-26.0
 30
0.0
 11
-323.433945
 21
-24.2
 31
0.0
  0
LINE
  5
DA
330
6B
100
AcDbEntity
  8
0
 62
     7
370
    35
100
AcDbLine
 10
-323.433945
 20
-24.2
 30
0.0
 11
-322.433945
 21
-24.2
 31
0.0
  0
LINE
  5
DB
330
6B
100
AcDbEntity
  8
0
 62
     7
370
    35
100
AcDbLine
 10
-322.433945
 20
-24.2
 30
0.0
 11
-318.433945
 21
-26.0
 31
0.0
  0
LINE
  5
DC
330
6B
100
AcDbEntity
  8
0
 62
     7
370
    35
100
AcDbLine
 10
-318.433945
 20
-26.0
 30
0.0
 11
-316.933945
 21
-26.0
 31
0.0
  0
LINE
  5
DD
330
6B
100
AcDbEntity
  8
0
 62
     7
370
    35
100
AcDbLine
 10
-316.933945
 20
-26.0
 30
0.0
 11
-316.933945
 21
-24.2
 31
0.0
  0
LINE
  5
DE
330
6B
100
AcDbEntity
  8
0
 62
     7
370
    35
100
AcDbLine
 10
-316.933945
 20
-24.2
 30
0.0
 11
-315.933945
 21
-24.2
 31
0.0
  0
LINE
  5
DF
330
6B
100
AcDbEntity
  8
0
 62
     7
370
    35
100
AcDbLine
 10
-315.933945
 20
-24.2
 30
0.0
 11
-311.933945
 21
-26.0
 31
0.0
  0
LINE
  5
E0
330
6B
100
AcDbEntity
  8
0
 62
     7
370
    35
100
AcDbLine
 10
-311.933945
 20
-26.0
 30
0.0
 11
-310.433945
 21
-26.0
 31
0.0
  0
LINE
  5
E1
330
6B
100
AcDbEntity
  8
0
 62
     7
370
    35
100
AcDbLine
 10
-310.433945
 20
-26.0
 30
0.0
 11
-310.433945
 21
-24.2
 31
0.0
  0
LINE
  5
E2
330
6B
100
AcDbEntity
  8
0
 62
     7
370
    35
100
AcDbLine
 10
-310.433945
 20
-24.2
 30
0.0
 11
-309.433945
 21
-24.2
 31
0.0
  0
LINE
  5
E3
330
6B
100
AcDbEntity
  8
0
 62
     7
370
    35
100
AcDbLine
 10
-309.433945
 20
-24.2
 30
0.0
 11
-305.433945
 21
-26.0
 31
0.0
  0
LINE
  5
E4
330
6B
100
AcDbEntity
  8
0
 62
     7
370
    35
100
AcDbLine
 10
-305.433945
 20
-26.0
 30
0.0
 11
-303.933945
 21
-26.0
 31
0.0
  0
LINE
  5
E5
330
6B
100
AcDbEntity
  8
0
 62
     7
370
    35
100
AcDbLine
 10
-303.933945
 20
-26.0
 30
0.0
 11
-303.933945
 21
-24.2
 31
0.0
  0
LINE
  5
E6
330
6B
100
AcDbEntity
  8
0
 62
     7
370
    35
100
AcDbLine
 10
-303.933945
 20
-24.2
 30
0.0
 11
-302.933945
 21
-24.2
 31
0.0
  0
LINE
  5
E7
330
6B
100
AcDbEntity
  8
0
 62
     7
370
    35
100
AcDbLine
 10
-302.933945
 20
-24.2
 30
0.0
 11
-298.933945
 21
-26.0
 31
0.0
  0
LINE
  5
E8
330
6B
100
AcDbEntity
  8
0
 62
     7
370
    35
100
AcDbLine
 10
-298.933945
 20
-26.0
 30
0.0
 11
-297.433945
 21
-26.0
 31
0.0
  0
LINE
  5
E9
330
6B
100
AcDbEntity
  8
0
 62
     7
370
    35
100
AcDbLine
 10
-297.433945
 20
-26.0
 30
0.0
 11
-297.433945
 21
-24.2
 31
0.0
  0
LINE
  5
EA
330
6B
100
AcDbEntity
  8
0
 62
     7
370
    35
100
AcDbLine
 10
-297.433945
 20
-24.2
 30
0.0
 11
-296.433945
 21
-24.2
 31
0.0
  0
LINE
  5
EB
330
6B
100
AcDbEntity
  8
0
 62
     7
370
    35
100
AcDbLine
 10
-296.433945
 20
-24.2
 30
0.0
 11
-292.433945
 21
-26.0
 31
0.0
  0
LINE
  5
EC
330
6B
100
AcDbEntity
  8
0
 62
     7
370
    35
100
AcDbLine
 10
-292.433945
 20
-26.0
 30
0.0
 11
-290.933945
 21
-26.0
 31
0.0
  0
LINE
  5
ED
330
6B
100
AcDbEntity
  8
0
 62
     7
370
    35
100
AcDbLine
 10
-290.933945
 20
-26.0
 30
0.0
 11
-290.933945
 21
-24.2
 31
0.0
  0
LINE
  5
EE
330
6B
100
AcDbEntity
  8
0
 62
     7
370
    35
100
AcDbLine
 10
-290.933945
 20
-24.2
 30
0.0
 11
-289.933945
 21
-24.2
 31
0.0
  0
LINE
  5
EF
330
6B
100
AcDbEntity
  8
0
 62
     7
370
    35
100
AcDbLine
 10
-289.933945
 20
-24.2
 30
0.0
 11
-285.933945
 21
-26.0
 31
0.0
  0
LINE
  5
F0
330
6B
100
AcDbEntity
  8
0
 62
     7
370
    35
100
AcDbLine
 10
-285.933945
 20
-26.0
 30
0.0
 11
-284.433945
 21
-26.0
 31
0.0
  0
LINE
  5
F1
330
6B
100
AcDbEntity
  8
0
 62
     7
370
    35
100
AcDbLine
 10
-284.433945
 20
-26.0
 30
0.0
 11
-284.433945
 21
-24.2
 31
0.0
  0
LINE
  5
F2
330
6B
100
AcDbEntity
  8
0
 62
     7
370
    35
100
AcDbLine
 10
-284.433945
 20
-24.2
 30
0.0
 11
-283.433945
 21
-24.2
 31
0.0
  0
LINE
  5
F3
330
6B
100
AcDbEntity
  8
0
 62
     7
370
    35
100
AcDbLine
 10
-283.433945
 20
-24.2
 30
0.0
 11
-279.433945
 21
-26.0
 31
0.0
  0
LINE
  5
F4
330
6B
100
AcDbEntity
  8
0
 62
     7
370
    35
100
AcDbLine
 10
-279.433945
 20
-26.0
 30
0.0
 11
-277.933945
 21
-26.0
 31
0.0
  0
LINE
  5
F5
330
6B
100
AcDbEntity
  8
0
 62
     7
370
    35
100
AcDbLine
 10
-277.933945
 20
-26.0
 30
0.0
 11
-277.933945
 21
-24.2
 31
0.0
  0
LINE
  5
F6
330
6B
100
AcDbEntity
  8
0
 62
     7
370
    35
100
AcDbLine
 10
-277.933945
 20
-24.2
 30
0.0
 11
-276.933945
 21
-24.2
 31
0.0
  0
LINE
  5
F7
330
6B
100
AcDbEntity
  8
0
 62
     7
370
    35
100
AcDbLine
 10
-276.933945
 20
-24.2
 30
0.0
 11
-272.933945
 21
-26.0
 31
0.0
  0
LINE
  5
F8
330
6B
100
AcDbEntity
  8
0
 62
     7
370
    35
100
AcDbLine
 10
-272.933945
 20
-26.0
 30
0.0
 11
-271.433945
 21
-26.0
 31
0.0
  0
LINE
  5
F9
330
6B
100
AcDbEntity
  8
0
 62
     7
370
    35
100
AcDbLine
 10
-271.433945
 20
-26.0
 30
0.0
 11
-271.433945
 21
-24.2
 31
0.0
  0
LINE
  5
FA
330
6B
100
AcDbEntity
  8
0
 62
     7
370
    35
100
AcDbLine
 10
-271.433945
 20
-24.2
 30
0.0
 11
-270.433945
 21
-24.2
 31
0.0
  0
LINE
  5
FB
330
6B
100
AcDbEntity
  8
0
 62
     7
370
    35
100
AcDbLine
 10
-270.433945
 20
-24.2
 30
0.0
 11
-266.433945
 21
-26.0
 31
0.0
  0
LINE
  5
FC
330
6B
100
AcDbEntity
  8
0
 62
     7
370
    35
100
AcDbLine
 10
-266.433945
 20
-26.0
 30
0.0
 11
-264.933945
 21
-26.0
 31
0.0
  0
LINE
  5
FD
330
6B
100
AcDbEntity
  8
0
 62
     7
370
    35
100
AcDbLine
 10
-264.933945
 20
-26.0
 30
0.0
 11
-264.933945
 21
-24.2
 31
0.0
  0
LINE
  5
FE
330
6B
100
AcDbEntity
  8
0
 62
     7
370
    35
100
AcDbLine
 10
-264.933945
 20
-24.2
 30
0.0
 11
-263.933945
 21
-24.2
 31
0.0
  0
LINE
  5
FF
330
6B
100
AcDbEntity
  8
0
 62
     7
370
    35
100
AcDbLine
 10
-263.933945
 20
-24.2
 30
0.0
 11
-259.933945
 21
-26.0
 31
0.0
  0
LINE
  5
100
330
6B
100
AcDbEntity
  8
0
 62
     7
370
    35
100
AcDbLine
 10
-259.933945
 20
-26.0
 30
0.0
 11
-258.433945
 21
-26.0
 31
0.0
  0
LINE
  5
101
330
6B
100
AcDbEntity
  8
0
 62
     7
370
    35
100
AcDbLine
 10
-258.433945
 20
-26.0
 30
0.0
 11
-258.433945
 21
-24.2
 31
0.0
  0
LINE
  5
102
330
6B
100
AcDbEntity
  8
0
 62
     7
370
    35
100
AcDbLine
 10
-258.433945
 20
-24.2
 30
0.0
 11
-257.433945
 21
-24.2
 31
0.0
  0
LINE
  5
103
330
6B
100
AcDbEntity
  8
0
 62
     7
370
    35
100
AcDbLine
 10
-257.433945
 20
-24.2
 30
0.0
 11
-253.433945
 21
-26.0
 31
0.0
  0
LINE
  5
104
330
6B
100
AcDbEntity
  8
0
 62
     7
370
    35
100
AcDbLine
 10
-253.433945
 20
-26.0
 30
0.0
 11
-251.933945
 21
-26.0
 31
0.0
  0
LINE
  5
105
330
6B
100
AcDbEntity
  8
0
 62
     7
370
    35
100
AcDbLine
 10
-251.933945
 20
-26.0
 30
0.0
 11
-251.933945
 21
-24.2
 31
0.0
  0
LINE
  5
106
330
6B
100
AcDbEntity
  8
0
 62
     7
370
    35
100
AcDbLine
 10
-251.933945
 20
-24.2
 30
0.0
 11
-250.933945
 21
-24.2
 31
0.0
  0
LINE
  5
107
330
6B
100
AcDbEntity
  8
0
 62
     7
370
    35
100
AcDbLine
 10
-250.933945
 20
-24.2
 30
0.0
 11
-246.933945
 21
-26.0
 31
0.0
  0
LINE
  5
108
330
6B
100
AcDbEntity
  8
0
 62
     7
370
    35
100
AcDbLine
 10
-246.933945
 20
-26.0
 30
0.0
 11
-245.433945
 21
-26.0
 31
0.0
  0
LINE
  5
109
330
6B
100
AcDbEntity
  8
0
 62
     7
370
    35
100
AcDbLine
 10
-245.433945
 20
-26.0
 30
0.0
 11
-245.433945
 21
-24.2
 31
0.0
  0
LINE
  5
10A
330
6B
100
AcDbEntity
  8
0
 62
     7
370
    35
100
AcDbLine
 10
-245.433945
 20
-24.2
 30
0.0
 11
-244.433945
 21
-24.2
 31
0.0
  0
LINE
  5
10B
330
6B
100
AcDbEntity
  8
0
 62
     7
370
    35
100
AcDbLine
 10
-244.433945
 20
-24.2
 30
0.0
 11
-240.433945
 21
-26.0
 31
0.0
  0
LINE
  5
10C
330
6B
100
AcDbEntity
  8
0
 62
     7
370
    35
100
AcDbLine
 10
-240.433945
 20
-26.0
 30
0.0
 11
-238.933945
 21
-26.0
 31
0.0
  0
LINE
  5
10D
330
6B
100
AcDbEntity
  8
0
 62
     7
370
    35
100
AcDbLine
 10
-238.933945
 20
-26.0
 30
0.0
 11
-238.933945
 21
-24.2
 31
0.0
  0
LINE
  5
10E
330
6B
100
AcDbEntity
  8
0
 62
     7
370
    35
100
AcDbLine
 10
-238.933945
 20
-24.2
 30
0.0
 11
-237.933945
 21
-24.2
 31
0.0
  0
LINE
  5
10F
330
6B
100
AcDbEntity
  8
0
 62
     7
370
    35
100
AcDbLine
 10
-237.933945
 20
-24.2
 30
0.0
 11
-233.933945
 21
-26.0
 31
0.0
  0
LINE
  5
110
330
6B
100
AcDbEntity
  8
0
 62
     7
370
    35
100
AcDbLine
 10
-233.933945
 20
-26.0
 30
0.0
 11
-232.433945
 21
-26.0
 31
0.0
  0
LINE
  5
111
330
6B
100
AcDbEntity
  8
0
 62
     7
370
    35
100
AcDbLine
 10
-232.433945
 20
-26.0
 30
0.0
 11
-232.433945
 21
-24.2
 31
0.0
  0
LINE
  5
112
330
6B
100
AcDbEntity
  8
0
 62
     7
370
    35
100
AcDbLine
 10
-232.433945
 20
-24.2
 30
0.0
 11
-231.433945
 21
-24.2
 31
0.0
  0
LINE
  5
113
330
6B
100
AcDbEntity
  8
0
 62
     7
370
    35
100
AcDbLine
 10
-231.433945
 20
-24.2
 30
0.0
 11
-227.433945
 21
-26.0
 31
0.0
  0
LINE
  5
114
330
6B
100
AcDbEntity
  8
0
 62
     7
370
    35
100
AcDbLine
 10
-227.433945
 20
-26.0
 30
0.0
 11
-223.933945
 21
-26.0
 31
0.0
  0
ARC
  5
115
330
6B
100
AcDbEntity
  8
0
 62
     7
370
    35
100
AcDbCircle
 10
-223.933945
 20
-30.0
 30
0.0
 40
4.0
100
AcDbArc
 50
0.0
 51
90.0
  0
LINE
  5
116
330
6B
100
AcDbEntity
  8
0
 62
     7
370
    35
100
AcDbLine
 10
-219.933945
 20
-30.0
 30
0.0
 11
-131.69414
 21
-30.0
 31
0.0
  0
LINE
  5
117
330
6B
100
AcDbEntity
  8
0
 62
     7
370
    35
100
AcDbLine
 10
-219.933945
 20
0.0
 30
0.0
 11
-131.69414
 21
0.0
 31
0.0
  0
ARC
  5
118
330
6B
100
AcDbEntity
  8
0
 62
     7
370
    35
100
AcDbCircle
 10
-223.933945
 20
0.0
 30
0.0
 40
4.0
100
AcDbArc
 50
270.0
 51
0.0
  0
LINE
  5
119
330
6B
100
AcDbEntity
  8
0
 62
     7
370
    35
100
AcDbLine
 10
-227.433945
 20
-4.0
 30
0.0
 11
-223.933945
 21
-4.0
 31
0.0
  0
LINE
  5
11A
330
6B
100
AcDbEntity
  8
0
 62
     7
370
    35
100
AcDbLine
 10
-231.433945
 20
-5.8
 30
0.0
 11
-227.433945
 21
-4.0
 31
0.0
  0
LINE
  5
11B
330
6B
100
AcDbEntity
  8
0
 62
     7
370
    35
100
AcDbLine
 10
-232.433945
 20
-5.8
 30
0.0
 11
-231.433945
 21
-5.8
 31
0.0
  0
LINE
  5
11C
330
6B
100
AcDbEntity
  8
0
 62
     7
370
    35
100
AcDbLine
 10
-232.433945
 20
-4.0
 30
0.0
 11
-232.433945
 21
-5.8
 31
0.0
  0
LINE
  5
11D
330
6B
100
AcDbEntity
  8
0
 62
     7
370
    35
100
AcDbLine
 10
-233.933945
 20
-4.0
 30
0.0
 11
-232.433945
 21
-4.0
 31
0.0
  0
LINE
  5
11E
330
6B
100
AcDbEntity
  8
0
 62
     7
370
    35
100
AcDbLine
 10
-237.933945
 20
-5.8
 30
0.0
 11
-233.933945
 21
-4.0
 31
0.0
  0
LINE
  5
11F
330
6B
100
AcDbEntity
  8
0
 62
     7
370
    35
100
AcDbLine
 10
-238.933945
 20
-5.8
 30
0.0
 11
-237.933945
 21
-5.8
 31
0.0
  0
LINE
  5
120
330
6B
100
AcDbEntity
  8
0
 62
     7
370
    35
100
AcDbLine
 10
-238.933945
 20
-4.0
 30
0.0
 11
-238.933945
 21
-5.8
 31
0.0
  0
LINE
  5
121
330
6B
100
AcDbEntity
  8
0
 62
     7
370
    35
100
AcDbLine
 10
-240.433945
 20
-4.0
 30
0.0
 11
-238.933945
 21
-4.0
 31
0.0
  0
LINE
  5
122
330
6B
100
AcDbEntity
  8
0
 62
     7
370
    35
100
AcDbLine
 10
-244.433945
 20
-5.8
 30
0.0
 11
-240.433945
 21
-4.0
 31
0.0
  0
LINE
  5
123
330
6B
100
AcDbEntity
  8
0
 62
     7
370
    35
100
AcDbLine
 10
-245.433945
 20
-5.8
 30
0.0
 11
-244.433945
 21
-5.8
 31
0.0
  0
LINE
  5
124
330
6B
100
AcDbEntity
  8
0
 62
     7
370
    35
100
AcDbLine
 10
-245.433945
 20
-4.0
 30
0.0
 11
-245.433945
 21
-5.8
 31
0.0
  0
LINE
  5
125
330
6B
100
AcDbEntity
  8
0
 62
     7
370
    35
100
AcDbLine
 10
-246.933945
 20
-4.0
 30
0.0
 11
-245.433945
 21
-4.0
 31
0.0
  0
LINE
  5
126
330
6B
100
AcDbEntity
  8
0
 62
     7
370
    35
100
AcDbLine
 10
-250.933945
 20
-5.8
 30
0.0
 11
-246.933945
 21
-4.0
 31
0.0
  0
LINE
  5
127
330
6B
100
AcDbEntity
  8
0
 62
     7
370
    35
100
AcDbLine
 10
-251.933945
 20
-5.8
 30
0.0
 11
-250.933945
 21
-5.8
 31
0.0
  0
LINE
  5
128
330
6B
100
AcDbEntity
  8
0
 62
     7
370
    35
100
AcDbLine
 10
-251.933945
 20
-4.0
 30
0.0
 11
-251.933945
 21
-5.8
 31
0.0
  0
LINE
  5
129
330
6B
100
AcDbEntity
  8
0
 62
     7
370
    35
100
AcDbLine
 10
-253.433945
 20
-4.0
 30
0.0
 11
-251.933945
 21
-4.0
 31
0.0
  0
LINE
  5
12A
330
6B
100
AcDbEntity
  8
0
 62
     7
370
    35
100
AcDbLine
 10
-257.433945
 20
-5.8
 30
0.0
 11
-253.433945
 21
-4.0
 31
0.0
  0
LINE
  5
12B
330
6B
100
AcDbEntity
  8
0
 62
     7
370
    35
100
AcDbLine
 10
-258.433945
 20
-5.8
 30
0.0
 11
-257.433945
 21
-5.8
 31
0.0
  0
LINE
  5
12C
330
6B
100
AcDbEntity
  8
0
 62
     7
370
    35
100
AcDbLine
 10
-258.433945
 20
-4.0
 30
0.0
 11
-258.433945
 21
-5.8
 31
0.0
  0
LINE
  5
12D
330
6B
100
AcDbEntity
  8
0
 62
     7
370
    35
100
AcDbLine
 10
-259.933945
 20
-4.0
 30
0.0
 11
-258.433945
 21
-4.0
 31
0.0
  0
LINE
  5
12E
330
6B
100
AcDbEntity
  8
0
 62
     7
370
    35
100
AcDbLine
 10
-263.933945
 20
-5.8
 30
0.0
 11
-259.933945
 21
-4.0
 31
0.0
  0
LINE
  5
12F
330
6B
100
AcDbEntity
  8
0
 62
     7
370
    35
100
AcDbLine
 10
-264.933945
 20
-5.8
 30
0.0
 11
-263.933945
 21
-5.8
 31
0.0
  0
LINE
  5
130
330
6B
100
AcDbEntity
  8
0
 62
     7
370
    35
100
AcDbLine
 10
-264.933945
 20
-4.0
 30
0.0
 11
-264.933945
 21
-5.8
 31
0.0
  0
LINE
  5
131
330
6B
100
AcDbEntity
  8
0
 62
     7
370
    35
100
AcDbLine
 10
-266.433945
 20
-4.0
 30
0.0
 11
-264.933945
 21
-4.0
 31
0.0
  0
LINE
  5
132
330
6B
100
AcDbEntity
  8
0
 62
     7
370
    35
100
AcDbLine
 10
-270.433945
 20
-5.8
 30
0.0
 11
-266.433945
 21
-4.0
 31
0.0
  0
LINE
  5
133
330
6B
100
AcDbEntity
  8
0
 62
     7
370
    35
100
AcDbLine
 10
-271.433945
 20
-5.8
 30
0.0
 11
-270.433945
 21
-5.8
 31
0.0
  0
LINE
  5
134
330
6B
100
AcDbEntity
  8
0
 62
     7
370
    35
100
AcDbLine
 10
-271.433945
 20
-4.0
 30
0.0
 11
-271.433945
 21
-5.8
 31
0.0
  0
LINE
  5
135
330
6B
100
AcDbEntity
  8
0
 62
     7
370
    35
100
AcDbLine
 10
-272.933945
 20
-4.0
 30
0.0
 11
-271.433945
 21
-4.0
 31
0.0
  0
LINE
  5
136
330
6B
100
AcDbEntity
  8
0
 62
     7
370
    35
100
AcDbLine
 10
-276.933945
 20
-5.8
 30
0.0
 11
-272.933945
 21
-4.0
 31
0.0
  0
LINE
  5
137
330
6B
100
AcDbEntity
  8
0
 62
     7
370
    35
100
AcDbLine
 10
-277.933945
 20
-5.8
 30
0.0
 11
-276.933945
 21
-5.8
 31
0.0
  0
LINE
  5
138
330
6B
100
AcDbEntity
  8
0
 62
     7
370
    35
100
AcDbLine
 10
-277.933945
 20
-4.0
 30
0.0
 11
-277.933945
 21
-5.8
 31
0.0
  0
LINE
  5
139
330
6B
100
AcDbEntity
  8
0
 62
     7
370
    35
100
AcDbLine
 10
-279.433945
 20
-4.0
 30
0.0
 11
-277.933945
 21
-4.0
 31
0.0
  0
LINE
  5
13A
330
6B
100
AcDbEntity
  8
0
 62
     7
370
    35
100
AcDbLine
 10
-283.433945
 20
-5.8
 30
0.0
 11
-279.433945
 21
-4.0
 31
0.0
  0
LINE
  5
13B
330
6B
100
AcDbEntity
  8
0
 62
     7
370
    35
100
AcDbLine
 10
-284.433945
 20
-5.8
 30
0.0
 11
-283.433945
 21
-5.8
 31
0.0
  0
LINE
  5
13C
330
6B
100
AcDbEntity
  8
0
 62
     7
370
    35
100
AcDbLine
 10
-284.433945
 20
-4.0
 30
0.0
 11
-284.433945
 21
-5.8
 31
0.0
  0
LINE
  5
13D
330
6B
100
AcDbEntity
  8
0
 62
     7
370
    35
100
AcDbLine
 10
-285.933945
 20
-4.0
 30
0.0
 11
-284.433945
 21
-4.0
 31
0.0
  0
LINE
  5
13E
330
6B
100
AcDbEntity
  8
0
 62
     7
370
    35
100
AcDbLine
 10
-289.933945
 20
-5.8
 30
0.0
 11
-285.933945
 21
-4.0
 31
0.0
  0
LINE
  5
13F
330
6B
100
AcDbEntity
  8
0
 62
     7
370
    35
100
AcDbLine
 10
-290.933945
 20
-5.8
 30
0.0
 11
-289.933945
 21
-5.8
 31
0.0
  0
LINE
  5
140
330
6B
100
AcDbEntity
  8
0
 62
     7
370
    35
100
AcDbLine
 10
-290.933945
 20
-4.0
 30
0.0
 11
-290.933945
 21
-5.8
 31
0.0
  0
LINE
  5
141
330
6B
100
AcDbEntity
  8
0
 62
     7
370
    35
100
AcDbLine
 10
-292.433945
 20
-4.0
 30
0.0
 11
-290.933945
 21
-4.0
 31
0.0
  0
LINE
  5
142
330
6B
100
AcDbEntity
  8
0
 62
     7
370
    35
100
AcDbLine
 10
-296.433945
 20
-5.8
 30
0.0
 11
-292.433945
 21
-4.0
 31
0.0
  0
LINE
  5
143
330
6B
100
AcDbEntity
  8
0
 62
     7
370
    35
100
AcDbLine
 10
-297.433945
 20
-5.8
 30
0.0
 11
-296.433945
 21
-5.8
 31
0.0
  0
LINE
  5
144
330
6B
100
AcDbEntity
  8
0
 62
     7
370
    35
100
AcDbLine
 10
-297.433945
 20
-4.0
 30
0.0
 11
-297.433945
 21
-5.8
 31
0.0
  0
LINE
  5
145
330
6B
100
AcDbEntity
  8
0
 62
     7
370
    35
100
AcDbLine
 10
-298.933945
 20
-4.0
 30
0.0
 11
-297.433945
 21
-4.0
 31
0.0
  0
LINE
  5
146
330
6B
100
AcDbEntity
  8
0
 62
     7
370
    35
100
AcDbLine
 10
-302.933945
 20
-5.8
 30
0.0
 11
-298.933945
 21
-4.0
 31
0.0
  0
LINE
  5
147
330
6B
100
AcDbEntity
  8
0
 62
     7
370
    35
100
AcDbLine
 10
-303.933945
 20
-5.8
 30
0.0
 11
-302.933945
 21
-5.8
 31
0.0
  0
LINE
  5
148
330
6B
100
AcDbEntity
  8
0
 62
     7
370
    35
100
AcDbLine
 10
-303.933945
 20
-4.0
 30
0.0
 11
-303.933945
 21
-5.8
 31
0.0
  0
LINE
  5
149
330
6B
100
AcDbEntity
  8
0
 62
     7
370
    35
100
AcDbLine
 10
-305.433945
 20
-4.0
 30
0.0
 11
-303.933945
 21
-4.0
 31
0.0
  0
LINE
  5
14A
330
6B
100
AcDbEntity
  8
0
 62
     7
370
    35
100
AcDbLine
 10
-309.433945
 20
-5.8
 30
0.0
 11
-305.433945
 21
-4.0
 31
0.0
  0
LINE
  5
14B
330
6B
100
AcDbEntity
  8
0
 62
     7
370
    35
100
AcDbLine
 10
-310.433945
 20
-5.8
 30
0.0
 11
-309.433945
 21
-5.8
 31
0.0
  0
LINE
  5
14C
330
6B
100
AcDbEntity
  8
0
 62
     7
370
    35
100
AcDbLine
 10
-310.433945
 20
-4.0
 30
0.0
 11
-310.433945
 21
-5.8
 31
0.0
  0
LINE
  5
14D
330
6B
100
AcDbEntity
  8
0
 62
     7
370
    35
100
AcDbLine
 10
-311.933945
 20
-4.0
 30
0.0
 11
-310.433945
 21
-4.0
 31
0.0
  0
LINE
  5
14E
330
6B
100
AcDbEntity
  8
0
 62
     7
370
    35
100
AcDbLine
 10
-315.933945
 20
-5.8
 30
0.0
 11
-311.933945
 21
-4.0
 31
0.0
  0
LINE
  5
14F
330
6B
100
AcDbEntity
  8
0
 62
     7
370
    35
100
AcDbLine
 10
-316.933945
 20
-5.8
 30
0.0
 11
-315.933945
 21
-5.8
 31
0.0
  0
LINE
  5
150
330
6B
100
AcDbEntity
  8
0
 62
     7
370
    35
100
AcDbLine
 10
-316.933945
 20
-4.0
 30
0.0
 11
-316.933945
 21
-5.8
 31
0.0
  0
LINE
  5
151
330
6B
100
AcDbEntity
  8
0
 62
     7
370
    35
100
AcDbLine
 10
-318.433945
 20
-4.0
 30
0.0
 11
-316.933945
 21
-4.0
 31
0.0
  0
LINE
  5
152
330
6B
100
AcDbEntity
  8
0
 62
     7
370
    35
100
AcDbLine
 10
-322.433945
 20
-5.8
 30
0.0
 11
-318.433945
 21
-4.0
 31
0.0
  0
LINE
  5
153
330
6B
100
AcDbEntity
  8
0
 62
     7
370
    35
100
AcDbLine
 10
-323.433945
 20
-5.8
 30
0.0
 11
-322.433945
 21
-5.8
 31
0.0
  0
LINE
  5
154
330
6B
100
AcDbEntity
  8
0
 62
     7
370
    35
100
AcDbLine
 10
-323.433945
 20
-4.0
 30
0.0
 11
-323.433945
 21
-5.8
 31
0.0
  0
LINE
  5
155
330
6B
100
AcDbEntity
  8
0
 62
     7
370
    35
100
AcDbLine
 10
-324.933945
 20
-4.0
 30
0.0
 11
-323.433945
 21
-4.0
 31
0.0
  0
LINE
  5
156
330
6B
100
AcDbEntity
  8
0
 62
     7
370
    35
100
AcDbLine
 10
-328.933945
 20
-5.8
 30
0.0
 11
-324.933945
 21
-4.0
 31
0.0
  0
LINE
  5
157
330
6B
100
AcDbEntity
  8
0
 62
     7
370
    35
100
AcDbLine
 10
-329.933945
 20
-5.8
 30
0.0
 11
-328.933945
 21
-5.8
 31
0.0
  0
LINE
  5
158
330
6B
100
AcDbEntity
  8
0
 62
     7
370
    35
100
AcDbLine
 10
-329.933945
 20
-4.0
 30
0.0
 11
-329.933945
 21
-5.8
 31
0.0
  0
LINE
  5
159
330
6B
100
AcDbEntity
  8
0
 62
     7
370
    35
100
AcDbLine
 10
-331.433945
 20
-4.0
 30
0.0
 11
-329.933945
 21
-4.0
 31
0.0
  0
LINE
  5
15A
330
6B
100
AcDbEntity
  8
0
 62
     7
370
    35
100
AcDbLine
 10
-335.433945
 20
-5.8
 30
0.0
 11
-331.433945
 21
-4.0
 31
0.0
  0
LINE
  5
15B
330
6B
100
AcDbEntity
  8
0
 62
     7
370
    35
100
AcDbLine
 10
-336.433945
 20
-5.8
 30
0.0
 11
-335.433945
 21
-5.8
 31
0.0
  0
LINE
  5
15C
330
6B
100
AcDbEntity
  8
0
 62
     7
370
    35
100
AcDbLine
 10
-336.433945
 20
-4.0
 30
0.0
 11
-336.433945
 21
-5.8
 31
0.0
  0
LINE
  5
15D
330
6B
100
AcDbEntity
  8
0
 62
     7
370
    35
100
AcDbLine
 10
-337.933945
 20
-4.0
 30
0.0
 11
-336.433945
 21
-4.0
 31
0.0
  0
LINE
  5
15E
330
6B
100
AcDbEntity
  8
0
 62
     7
370
    35
100
AcDbLine
 10
-341.933945
 20
-5.8
 30
0.0
 11
-337.933945
 21
-4.0
 31
0.0
  0
LINE
  5
15F
330
6B
100
AcDbEntity
  8
0
 62
     7
370
    35
100
AcDbLine
 10
-342.933945
 20
-5.8
 30
0.0
 11
-341.933945
 21
-5.8
 31
0.0
  0
LINE
  5
160
330
6B
100
AcDbEntity
  8
0
 62
     7
370
    35
100
AcDbLine
 10
-342.933945
 20
-4.0
 30
0.0
 11
-342.933945
 21
-5.8
 31
0.0
  0
LINE
  5
161
330
6B
100
AcDbEntity
  8
0
 62
     7
370
    35
100
AcDbLine
 10
-344.433945
 20
-4.0
 30
0.0
 11
-342.933945
 21
-4.0
 31
0.0
  0
LINE
  5
162
330
6B
100
AcDbEntity
  8
0
 62
     7
370
    35
100
AcDbLine
 10
-348.433945
 20
-5.8
 30
0.0
 11
-344.433945
 21
-4.0
 31
0.0
  0
LINE
  5
163
330
6B
100
AcDbEntity
  8
0
 62
     7
370
    35
100
AcDbLine
 10
-349.433945
 20
-5.8
 30
0.0
 11
-348.433945
 21
-5.8
 31
0.0
  0
LINE
  5
164
330
6B
100
AcDbEntity
  8
0
 62
     7
370
    35
100
AcDbLine
 10
-349.433945
 20
-4.0
 30
0.0
 11
-349.433945
 21
-5.8
 31
0.0
  0
LINE
  5
165
330
6B
100
AcDbEntity
  8
0
 62
     7
370
    35
100
AcDbLine
 10
-350.933945
 20
-4.0
 30
0.0
 11
-349.433945
 21
-4.0
 31
0.0
  0
LINE
  5
166
330
6B
100
AcDbEntity
  8
0
 62
     7
370
    35
100
AcDbLine
 10
-354.933945
 20
-5.8
 30
0.0
 11
-350.933945
 21
-4.0
 31
0.0
  0
LINE
  5
167
330
6B
100
AcDbEntity
  8
0
 62
     7
370
    35
100
AcDbLine
 10
-355.933945
 20
-5.8
 30
0.0
 11
-354.933945
 21
-5.8
 31
0.0
  0
LINE
  5
168
330
6B
100
AcDbEntity
  8
0
 62
     7
370
    35
100
AcDbLine
 10
-355.933945
 20
-4.0
 30
0.0
 11
-355.933945
 21
-5.8
 31
0.0
  0
LINE
  5
169
330
6B
100
AcDbEntity
  8
0
 62
     7
370
    35
100
AcDbLine
 10
-357.433945
 20
-4.0
 30
0.0
 11
-355.933945
 21
-4.0
 31
0.0
  0
LINE
  5
16A
330
6B
100
AcDbEntity
  8
0
 62
     7
370
    35
100
AcDbLine
 10
-361.433945
 20
-5.8
 30
0.0
 11
-357.433945
 21
-4.0
 31
0.0
  0
LINE
  5
16B
330
6B
100
AcDbEntity
  8
0
 62
     7
370
    35
100
AcDbLine
 10
-362.433945
 20
-5.8
 30
0.0
 11
-361.433945
 21
-5.8
 31
0.0
  0
LINE
  5
16C
330
6B
100
AcDbEntity
  8
0
 62
     7
370
    35
100
AcDbLine
 10
-362.433945
 20
-4.0
 30
0.0
 11
-362.433945
 21
-5.8
 31
0.0
  0
LINE
  5
16D
330
6B
100
AcDbEntity
  8
0
 62
     7
370
    35
100
AcDbLine
 10
-363.933945
 20
-4.0
 30
0.0
 11
-362.433945
 21
-4.0
 31
0.0
  0
LINE
  5
16E
330
6B
100
AcDbEntity
  8
0
 62
     7
370
    35
100
AcDbLine
 10
-367.933945
 20
-5.8
 30
0.0
 11
-363.933945
 21
-4.0
 31
0.0
  0
LINE
  5
16F
330
6B
100
AcDbEntity
  8
0
 62
     7
370
    35
100
AcDbLine
 10
-368.933945
 20
-5.8
 30
0.0
 11
-367.933945
 21
-5.8
 31
0.0
  0
LINE
  5
170
330
6B
100
AcDbEntity
  8
0
 62
     7
370
    35
100
AcDbLine
 10
-368.933945
 20
-4.0
 30
0.0
 11
-368.933945
 21
-5.8
 31
0.0
  0
LINE
  5
171
330
6B
100
AcDbEntity
  8
0
 62
     7
370
    35
100
AcDbLine
 10
-370.433945
 20
-4.0
 30
0.0
 11
-368.933945
 21
-4.0
 31
0.0
  0
LINE
  5
172
330
6B
100
AcDbEntity
  8
0
 62
     7
370
    35
100
AcDbLine
 10
-374.433945
 20
-5.8
 30
0.0
 11
-370.433945
 21
-4.0
 31
0.0
  0
LINE
  5
173
330
6B
100
AcDbEntity
  8
0
 62
     7
370
    35
100
AcDbLine
 10
-375.433945
 20
-5.8
 30
0.0
 11
-374.433945
 21
-5.8
 31
0.0
  0
LINE
  5
174
330
6B
100
AcDbEntity
  8
0
 62
     7
370
    35
100
AcDbLine
 10
-375.433945
 20
-4.0
 30
0.0
 11
-375.433945
 21
-5.8
 31
0.0
  0
LINE
  5
175
330
6B
100
AcDbEntity
  8
0
 62
     7
370
    35
100
AcDbLine
 10
-376.933945
 20
-4.0
 30
0.0
 11
-375.433945
 21
-4.0
 31
0.0
  0
LINE
  5
176
330
6B
100
AcDbEntity
  8
0
 62
     7
370
    35
100
AcDbLine
 10
-380.933945
 20
-5.8
 30
0.0
 11
-376.933945
 21
-4.0
 31
0.0
  0
LINE
  5
177
330
6B
100
AcDbEntity
  8
0
 62
     7
370
    35
100
AcDbLine
 10
-381.933945
 20
-5.8
 30
0.0
 11
-380.933945
 21
-5.8
 31
0.0
  0
LINE
  5
178
330
6B
100
AcDbEntity
  8
0
 62
     7
370
    35
100
AcDbLine
 10
-381.933945
 20
-4.0
 30
0.0
 11
-381.933945
 21
-5.8
 31
0.0
  0
LINE
  5
179
330
6B
100
AcDbEntity
  8
0
 62
     7
370
    35
100
AcDbLine
 10
-383.433945
 20
-4.0
 30
0.0
 11
-381.933945
 21
-4.0
 31
0.0
  0
LINE
  5
17A
330
6B
100
AcDbEntity
  8
0
 62
     7
370
    35
100
AcDbLine
 10
-387.433945
 20
-5.8
 30
0.0
 11
-383.433945
 21
-4.0
 31
0.0
  0
LINE
  5
17B
330
6B
100
AcDbEntity
  8
0
 62
     7
370
    35
100
AcDbLine
 10
-388.433945
 20
-5.8
 30
0.0
 11
-387.433945
 21
-5.8
 31
0.0
  0
LINE
  5
17C
330
6B
100
AcDbEntity
  8
0
 62
     7
370
    35
100
AcDbLine
 10
-388.433945
 20
-4.0
 30
0.0
 11
-388.433945
 21
-5.8
 31
0.0
  0
LINE
  5
17D
330
6B
100
AcDbEntity
  8
0
 62
     7
370
    35
100
AcDbLine
 10
-389.933945
 20
-4.0
 30
0.0
 11
-388.433945
 21
-4.0
 31
0.0
  0
LINE
  5
17E
330
6B
100
AcDbEntity
  8
0
 62
     7
370
    35
100
AcDbLine
 10
-393.933945
 20
-5.8
 30
0.0
 11
-389.933945
 21
-4.0
 31
0.0
  0
LINE
  5
17F
330
6B
100
AcDbEntity
  8
0
 62
     7
370
    35
100
AcDbLine
 10
-394.933945
 20
-5.8
 30
0.0
 11
-393.933945
 21
-5.8
 31
0.0
  0
LINE
  5
180
330
6B
100
AcDbEntity
  8
0
 62
     7
370
    35
100
AcDbLine
 10
-394.933945
 20
-4.0
 30
0.0
 11
-394.933945
 21
-5.8
 31
0.0
  0
LINE
  5
181
330
6B
100
AcDbEntity
  8
0
 62
     7
370
    35
100
AcDbLine
 10
-396.433945
 20
-4.0
 30
0.0
 11
-394.933945
 21
-4.0
 31
0.0
  0
LINE
  5
182
330
6B
100
AcDbEntity
  8
0
 62
     7
370
    35
100
AcDbLine
 10
-400.433945
 20
-5.8
 30
0.0
 11
-396.433945
 21
-4.0
 31
0.0
  0
LINE
  5
183
330
6B
100
AcDbEntity
  8
0
 62
     7
370
    35
100
AcDbLine
 10
-401.433945
 20
-5.8
 30
0.0
 11
-400.433945
 21
-5.8
 31
0.0
  0
LINE
  5
184
330
6B
100
AcDbEntity
  8
0
 62
     7
370
    35
100
AcDbLine
 10
-401.433945
 20
-4.0
 30
0.0
 11
-401.433945
 21
-5.8
 31
0.0
  0
LINE
  5
185
330
6B
100
AcDbEntity
  8
0
 62
     7
370
    35
100
AcDbLine
 10
-402.933945
 20
-4.0
 30
0.0
 11
-401.433945
 21
-4.0
 31
0.0
  0
LINE
  5
186
330
6B
100
AcDbEntity
  8
0
 62
     7
370
    35
100
AcDbLine
 10
-406.933945
 20
-5.8
 30
0.0
 11
-402.933945
 21
-4.0
 31
0.0
  0
LINE
  5
187
330
6B
100
AcDbEntity
  8
0
 62
     7
370
    35
100
AcDbLine
 10
-407.933945
 20
-5.8
 30
0.0
 11
-406.933945
 21
-5.8
 31
0.0
  0
LINE
  5
188
330
6B
100
AcDbEntity
  8
0
 62
     7
370
    35
100
AcDbLine
 10
-407.933945
 20
-4.0
 30
0.0
 11
-407.933945
 21
-5.8
 31
0.0
  0
LINE
  5
189
330
6B
100
AcDbEntity
  8
0
 62
     7
370
    35
100
AcDbLine
 10
-409.433945
 20
-4.0
 30
0.0
 11
-407.933945
 21
-4.0
 31
0.0
  0
LINE
  5
18A
330
6B
100
AcDbEntity
  8
0
 62
     7
370
    35
100
AcDbLine
 10
-413.433945
 20
-5.8
 30
0.0
 11
-409.433945
 21
-4.0
 31
0.0
  0
LINE
  5
18B
330
6B
100
AcDbEntity
  8
0
 62
     7
370
    35
100
AcDbLine
 10
-414.433945
 20
-5.8
 30
0.0
 11
-413.433945
 21
-5.8
 31
0.0
  0
LINE
  5
18C
330
6B
100
AcDbEntity
  8
0
 62
     7
370
    35
100
AcDbLine
 10
-414.433945
 20
-4.0
 30
0.0
 11
-414.433945
 21
-5.8
 31
0.0
  0
LINE
  5
18D
330
6B
100
AcDbEntity
  8
0
 62
     7
370
    35
100
AcDbLine
 10
-415.933945
 20
-4.0
 30
0.0
 11
-414.433945
 21
-4.0
 31
0.0
  0
LINE
  5
18E
330
6B
100
AcDbEntity
  8
0
 62
     7
370
    35
100
AcDbLine
 10
-419.933945
 20
-5.8
 30
0.0
 11
-415.933945
 21
-4.0
 31
0.0
  0
LINE
  5
18F
330
6B
100
AcDbEntity
  8
0
 62
     7
370
    35
100
AcDbLine
 10
-420.933945
 20
-5.8
 30
0.0
 11
-419.933945
 21
-5.8
 31
0.0
  0
LINE
  5
190
330
6B
100
AcDbEntity
  8
0
 62
     7
370
    35
100
AcDbLine
 10
-420.933945
 20
-4.0
 30
0.0
 11
-420.933945
 21
-5.8
 31
0.0
  0
LINE
  5
191
330
6B
100
AcDbEntity
  8
0
 62
     7
370
    35
100
AcDbLine
 10
-422.433945
 20
-4.0
 30
0.0
 11
-420.933945
 21
-4.0
 31
0.0
  0
LINE
  5
192
330
6B
100
AcDbEntity
  8
0
 62
     7
370
    35
100
AcDbLine
 10
-426.433945
 20
-5.8
 30
0.0
 11
-422.433945
 21
-4.0
 31
0.0
  0
LINE
  5
193
330
6B
100
AcDbEntity
  8
0
 62
     7
370
    35
100
AcDbLine
 10
-427.433945
 20
-5.8
 30
0.0
 11
-426.433945
 21
-5.8
 31
0.0
  0
LINE
  5
194
330
6B
100
AcDbEntity
  8
0
 62
     7
370
    35
100
AcDbLine
 10
-427.433945
 20
-4.0
 30
0.0
 11
-427.433945
 21
-5.8
 31
0.0
  0
LINE
  5
195
330
6B
100
AcDbEntity
  8
0
 62
     7
370
    35
100
AcDbLine
 10
-428.933945
 20
-4.0
 30
0.0
 11
-427.433945
 21
-4.0
 31
0.0
  0
LINE
  5
196
330
6B
100
AcDbEntity
  8
0
 62
     7
370
    35
100
AcDbLine
 10
-432.933945
 20
-5.8
 30
0.0
 11
-428.933945
 21
-4.0
 31
0.0
  0
LINE
  5
197
330
6B
100
AcDbEntity
  8
0
 62
     7
370
    35
100
AcDbLine
 10
-433.933945
 20
-5.8
 30
0.0
 11
-432.933945
 21
-5.8
 31
0.0
  0
LINE
  5
198
330
6B
100
AcDbEntity
  8
0
 62
     7
370
    35
100
AcDbLine
 10
-433.933945
 20
-4.0
 30
0.0
 11
-433.933945
 21
-5.8
 31
0.0
  0
LINE
  5
199
330
6B
100
AcDbEntity
  8
0
 62
     7
370
    35
100
AcDbLine
 10
-435.433945
 20
-4.0
 30
0.0
 11
-433.933945
 21
-4.0
 31
0.0
  0
LINE
  5
19A
330
6B
100
AcDbEntity
  8
0
 62
     7
370
    35
100
AcDbLine
 10
-439.433945
 20
-5.8
 30
0.0
 11
-435.433945
 21
-4.0
 31
0.0
  0
LINE
  5
19B
330
6B
100
AcDbEntity
  8
0
 62
     7
370
    35
100
AcDbLine
 10
-440.433945
 20
-5.8
 30
0.0
 11
-439.433945
 21
-5.8
 31
0.0
  0
LINE
  5
19C
330
6B
100
AcDbEntity
  8
0
 62
     7
370
    35
100
AcDbLine
 10
-440.433945
 20
-4.0
 30
0.0
 11
-440.433945
 21
-5.8
 31
0.0
  0
LINE
  5
19D
330
6B
100
AcDbEntity
  8
0
 62
     7
370
    35
100
AcDbLine
 10
-441.933945
 20
-4.0
 30
0.0
 11
-440.433945
 21
-4.0
 31
0.0
  0
LINE
  5
19E
330
6B
100
AcDbEntity
  8
0
 62
     7
370
    35
100
AcDbLine
 10
-445.933945
 20
-5.8
 30
0.0
 11
-441.933945
 21
-4.0
 31
0.0
  0
LINE
  5
19F
330
6B
100
AcDbEntity
  8
0
 62
     7
370
    35
100
AcDbLine
 10
-446.933945
 20
-5.8
 30
0.0
 11
-445.933945
 21
-5.8
 31
0.0
  0
LINE
  5
1A0
330
6B
100
AcDbEntity
  8
0
 62
     7
370
    35
100
AcDbLine
 10
-446.933945
 20
-4.0
 30
0.0
 11
-446.933945
 21
-5.8
 31
0.0
  0
LINE
  5
1A1
330
6B
100
AcDbEntity
  8
0
 62
     7
370
    35
100
AcDbLine
 10
-448.433945
 20
-4.0
 30
0.0
 11
-446.933945
 21
-4.0
 31
0.0
  0
LINE
  5
1A2
330
6B
100
AcDbEntity
  8
0
 62
     7
370
    35
100
AcDbLine
 10
-452.433945
 20
-5.8
 30
0.0
 11
-448.433945
 21
-4.0
 31
0.0
  0
LINE
  5
1A3
330
6B
100
AcDbEntity
  8
0
 62
     7
370
    35
100
AcDbLine
 10
-453.433945
 20
-5.8
 30
0.0
 11
-452.433945
 21
-5.8
 31
0.0
  0
LINE
  5
1A4
330
6B
100
AcDbEntity
  8
0
 62
     7
370
    35
100
AcDbLine
 10
-453.433945
 20
-4.0
 30
0.0
 11
-453.433945
 21
-5.8
 31
0.0
  0
LINE
  5
1A5
330
6B
100
AcDbEntity
  8
0
 62
     7
370
    35
100
AcDbLine
 10
-454.933945
 20
-4.0
 30
0.0
 11
-453.433945
 21
-4.0
 31
0.0
  0
LINE
  5
1A6
330
6B
100
AcDbEntity
  8
0
 62
     7
370
    35
100
AcDbLine
 10
-458.933945
 20
-5.8
 30
0.0
 11
-454.933945
 21
-4.0
 31
0.0
  0
LINE
  5
1A7
330
6B
100
AcDbEntity
  8
0
 62
     7
370
    35
100
AcDbLine
 10
-459.933945
 20
-5.8
 30
0.0
 11
-458.933945
 21
-5.8
 31
0.0
  0
LINE
  5
1A8
330
6B
100
AcDbEntity
  8
0
 62
     7
370
    35
100
AcDbLine
 10
-459.933945
 20
-4.0
 30
0.0
 11
-459.933945
 21
-5.8
 31
0.0
  0
ARC
  5
1A9
330
6B
100
AcDbEntity
  8
0
 62
     7
370
    35
100
AcDbCircle
 10
-459.933945
 20
-14.0
 30
0.0
 40
9.999999999999998
100
AcDbArc
 50
90.0
 51
180.0
  0
LINE
  5
1AA
330
6B
100
AcDbEntity
  8
0
 62
     7
370
    35
100
AcDbLine
 10
-469.933945
 20
-16.0
 30
0.0
 11
-469.933945
 21
-14.0
 31
0.0
  0
ARC
  5
1AB
330
6B
100
AcDbEntity
  8
0
 62
     7
370
    35
100
AcDbCircle
 10
-459.933945
 20
-16.0
 30
0.0
 40
10.0
100
AcDbArc
 50
180.0
 51
270.0
  0
LINE
  5
1AC
330
6B
100
AcDbEntity
  8
0
 62
     7
370
    35
100
AcDbLine
 10
-459.933945
 20
-26.0
 30
0.0
 11
-459.933945
 21
-24.2
 31
0.0
  0
LINE
  5
1AD
330
6B
100
AcDbEntity
  8
0
 62
     7
370
    35
100
AcDbLine
 10
-459.933945
 20
-24.2
 30
0.0
 11
-458.933945
 21
-24.2
 31
0.0
  0
LINE
  5
1AE
330
6B
100
AcDbEntity
  8
0
 62
     7
370
    35
100
AcDbLine
 10
-458.933945
 20
-24.2
 30
0.0
 11
-454.933945
 21
-26.0
 31
0.0
  0
LINE
  5
1AF
330
6B
100
AcDbEntity
  8
0
 62
     7
370
    35
100
AcDbLine
 10
-454.933945
 20
-26.0
 30
0.0
 11
-453.433945
 21
-26.0
 31
0.0
  0
LINE
  5
1B0
330
6B
100
AcDbEntity
  8
0
 62
     7
370
    35
100
AcDbLine
 10
-453.433945
 20
-26.0
 30
0.0
 11
-453.433945
 21
-24.2
 31
0.0
  0
LINE
  5
1B1
330
6B
100
AcDbEntity
  8
0
 62
     7
370
    35
100
AcDbLine
 10
-453.433945
 20
-24.2
 30
0.0
 11
-452.433945
 21
-24.2
 31
0.0
  0
LINE
  5
1B2
330
6B
100
AcDbEntity
  8
0
 62
     7
370
    35
100
AcDbLine
 10
-452.433945
 20
-24.2
 30
0.0
 11
-448.433945
 21
-26.0
 31
0.0
  0
ARC
  5
1B3
330
6B
100
AcDbEntity
  8
0
 62
     7
370
    35
100
AcDbCircle
 10
-133.435639
 20
-15.0
 30
0.0
 40
1.500000000001194
100
AcDbArc
 50
180.0
 51
0.0
  0
ARC
  5
1B4
330
6B
100
AcDbEntity
  8
0
 62
     7
370
    35
100
AcDbCircle
 10
-133.435639
 20
-15.0
 30
0.0
 40
1.500000000001194
100
AcDbArc
 50
0.0
 51
180.0
  0
ENDBLK
  5
6D
330
6B
100
AcDbEntity
  8
0
100
AcDbBlockEnd
  0
BLOCK
  5
6F
330
6E
100
AcDbEntity
  8
0
100
AcDbBlockBegin
  2
BLOCK2
 70
     0
 10
0.0
 20
0.0
 30
0.0
  3
BLOCK2
  1
BLOCK2
  0
LINE
  5
1B5
330
6E
100
AcDbEntity
  8
0
 62
     7
370
    35
100
AcDbLine
 10
0.712002
 20
-200.0
 30
0.0
 11
142.174054
 21
-200.0
 31
0.0
  0
SPLINE
  5
1B6
330
6E
100
AcDbEntity
  8
0
 62
     7
370
    35
100
AcDbSpline
210
0.0
220
0.0
230
1.0
 70
     8
 71
     5
 72
    21
 73
    15
 74
     0
 42
0.000000001
 43
0.0
 40
0.0
 40
0.0
 40
0.0
 40
0.0
 40
0.0
 40
0.0
 40
18.52393604884204
 40
18.52393604884204
 40
18.52393604884204
 40
34.08245382749686
 40
34.08245382749686
 40
34.08245382749686
 40
51.46164614887144
 40
51.46164614887144
 40
51.46164614887144
 40
53.63826869628647
 40
53.63826869628647
 40
53.63826869628647
 40
53.63826869628647
 40
53.63826869628647
 40
53.63826869628647
 10
-22.15266567916064
 20
-183.5878932721333
 30
0.0
 10
-21.74240291907518
 20
-185.6855508308775
 30
0.0
 10
-21.03304850283597
 20
-187.7223937709658
 30
0.0
 10
-20.0385850370895
 20
-189.6385709955362
 30
0.0
 10
-17.748590833821
 20
-192.8502635730617
 30
0.0
 10
-14.76872903188857
 20
-195.3906546916185
 30
0.0
 10
-13.29199935107559
 20
-196.3940878973654
 30
0.0
 10
-9.981576969329582
 20
-198.1820937617312
 30
0.0
 10
-6.38944011160464
 20
-199.2802894751996
 30
0.0
 10
-4.448310663320318
 20
-199.6749736683115
 30
0.0
 10
-2.241420296487554
 20
-199.9303684340802
 30
0.0
 10
-0.027494793904987
 20
-199.9930796001812
 30
0.0
 10
0.2190020062409421
 20
-199.9977032826936
 30
0.0
 10
0.4655022494079673
 20
-200.0
 30
0.0
 10
0.7120024938492002
 20
-200.0
 30
0.0
  0
SPLINE
  5
1B7
330
6E
100
AcDbEntity
  8
0
 62
     7
370
    35
100
AcDbSpline
210
0.0
220
0.0
230
1.0
 70
     8
 71
     5
 72
    15
 73
     9
 74
     0
 42
0.000000001
 43
0.0
 40
0.0
 40
0.0
 40
0.0
 40
0.0
 40
0.0
 40
0.0
 40
109.8534968353427
 40
109.8534968353427
 40
109.8534968353427
 40
219.6344321458803
 40
219.6344321458803
 40
219.6344321458803
 40
219.6344321458803
 40
219.6344321458803
 40
219.6344321458803
 10
-22.15266567916064
 20
-183.5878932721333
 30
0.0
 10
-24.58560496934315
 20
-171.1483483765853
 30
0.0
 10
-26.97815809292352
 20
-158.7010529989851
 30
0.0
 10
-29.33720476773948
 20
-146.2475798176351
 30
0.0
 10
-33.99773155719053
 20
-121.3361865305848
 30
0.0
 10
-38.56416886490398
 20
-96.40555147574938
 30
0.0
 10
-40.8354537697537
 20
-83.89817506165069
 30
0.0
 10
-43.08355109961893
 20
-71.43105433518318
 30
0.0
 10
-45.3201706401146
 20
-58.96168346419791
 30
0.0
  0
LINE
  5
1B8
330
6E
100
AcDbEntity
  8
0
 62
     7
370
    35
100
AcDbLine
 10
-45.320171
 20
0.0
 30
0.0
 11
188.206245
 21
0.0
 31
0.0
  0
SPLINE
  5
1B9
330
6E
100
AcDbEntity
  8
0
 62
     7
370
    35
100
AcDbSpline
210
0.0
220
0.0
230
1.0
 70
     8
 71
     5
 72
    15
 73
     9
 74
     0
 42
0.000000001
 43
0.0
 40
0.0
 40
0.0
 40
0.0
 40
0.0
 40
0.0
 40
0.0
 40
109.853498411544
 40
109.853498411544
 40
109.853498411544
 40
219.7104720656113
 40
219.7104720656113
 40
219.7104720656113
 40
219.7104720656113
 40
219.7104720656113
 40
219.7104720656113
 10
165.0387211038179
 20
-183.5878932719748
 30
0.0
 10
167.4716628345328
 20
-171.1483483503616
 30
0.0
 10
169.8642189034263
 20
-158.7010529752794
 30
0.0
 10
172.2232688003682
 20
-146.2475798112989
 30
0.0
 10
176.885415380237
 20
-121.3275622966688
 30
0.0
 10
181.4534052503764
 20
-96.38828956256816
 30
0.0
 10
183.7183200935116
 20
-83.915439910807
 30
0.0
 10
185.9680767275179
 20
-71.43969107536026
 30
0.0
 10
188.206245432088
 20
-58.96168346431831
 30
0.0
  0
SPLINE
  5
1BA
330
6E
100
AcDbEntity
  8
0
 62
     7
370
    35
100
AcDbSpline
210
0.0
220
0.0
230
1.0
 70
     8
 71
     5
 72
    21
 73
    15
 74
     0
 42
0.000000001
 43
0.0
 40
0.0
 40
0.0
 40
0.0
 40
0.0
 40
0.0
 40
0.0
 40
18.52393153444388
 40
18.52393153444388
 40
18.52393153444388
 40
34.08245409302891
 40
34.08245409302891
 40
34.08245409302891
 40
51.46164975749241
 40
51.46164975749241
 40
51.46164975749241
 40
53.63826684157182
 40
53.63826684157182
 40
53.63826684157182
 40
53.63826684157182
 40
53.63826684157182
 40
53.63826684157182
 10
165.0387211038179
 20
-183.5878932719748
 30
0.0
 10
164.628458038067
 20
-185.6855502937568
 30
0.0
 10
163.9191031927015
 20
-187.7223926914764
 30
0.0
 10
162.9246392544874
 20
-189.6385693744886
 30
0.0
 10
160.6346438449979
 20
-192.8502619602348
 30
0.0
 10
157.6547812584827
 20
-195.3906532870234
 30
0.0
 10
156.17805090837
 20
-196.394086905979
 30
0.0
 10
152.8676276786426
 20
-198.1820934369412
 30
0.0
 10
149.2754908509821
 20
-199.2802895936615
 30
0.0
 10
147.33436180932
 20
-199.6749739066782
 30
0.0
 10
145.1274728198098
 20
-199.9303685930838
 30
0.0
 10
142.9135489360493
 20
-199.9930796307539
 30
0.0
 10
142.6670529110938
 20
-199.9977032927995
 30
0.0
 10
142.4205534456531
 20
-199.9999999999997
 30
0.0
 10
142.1740539813026
 20
-199.9999999999997
 30
0.0
  0
LINE
  5
1BB
330
6E
100
AcDbEntity
  8
0
 62
     7
370
    35
100
AcDbLine
 10
196.229097
 20
-30.0
 30
0.0
 11
203.316839
 21
-30.0
 31
0.0
  0
SPLINE
  5
1BC
330
6E
100
AcDbEntity
  8
0
 62
     7
370
    35
100
AcDbSpline
210
0.0
220
0.0
230
1.0
 70
     8
 71
     5
 72
    18
 73
    12
 74
     0
 42
0.000000001
 43
0.0
 40
0.0
 40
0.0
 40
0.0
 40
0.0
 40
0.0
 40
0.0
 40
2.392570614535637
 40
2.392570614535637
 40
2.392570614535637
 40
4.794257044805033
 40
4.794257044805033
 40
4.794257044805033
 40
5.992187554470688
 40
5.992187554470688
 40
5.992187554470688
 40
5.992187554470688
 40
5.992187554470688
 40
5.992187554470688
 10
196.229097330658
 20
-29.99999999979708
 30
0.0
 10
195.9581423652629
 20
-30.00000000058962
 30
0.0
 10
195.6871870118943
 20
-30.01842518547716
 30
0.0
 10
195.4175820514511
 20
-30.05825869604934
 30
0.0
 10
194.8865607686542
 20
-30.18906487576165
 30
0.0
 10
194.3975005595055
 20
-30.43793811064778
 30
0.0
 10
194.1685249452416
 20
-30.5964345287586
 30
0.0
 10
193.8687156245569
 20
-30.88854322807315
 30
0.0
 10
193.6611534451494
 20
-31.2483563728592
 30
0.0
 10
193.6038638623447
 20
-31.37471705872255
 30
0.0
 10
193.5597518384866
 20
-31.50633985162087
 30
0.0
 10
193.5296233462151
 20
-31.64121051207491
 30
0.0
  0
SPLINE
  5
1BD
330
6E
100
AcDbEntity
  8
0
 62
     7
370
    35
100
AcDbSpline
210
0.0
220
0.0
230
1.0
 70
     8
 71
     5
 72
    18
 73
    12
 74
     0
 42
0.000000001
 43
0.0
 40
0.0
 40
0.0
 40
0.0
 40
0.0
 40
0.0
 40
0.0
 40
14.4745939602063
 40
14.4745939602063
 40
14.4745939602063
 40
43.42827548879421
 40
43.42827548879421
 40
43.42827548879421
 40
48.25410406789224
 40
48.25410406789224
 40
48.25410406789224
 40
48.25410406789224
 40
48.25410406789224
 40
48.25410406789224
 10
193.5296233462151
 20
-31.6412105120749
 30
0.0
 10
193.1656109317931
 20
-33.27072778152256
 30
0.0
 10
192.8129783075192
 20
-34.90261428356637
 30
0.0
 10
192.4695272587853
 20
-36.53609786916012
 30
0.0
 10
191.4618944188733
 20
-41.44309787721077
 30
0.0
 10
190.5127017626016
 20
-46.36489971760784
 30
0.0
 10
189.8975223321255
 20
-49.6471972530686
 30
0.0
 10
189.1940132273823
 20
-53.48120888935141
 30
0.0
 10
188.5017509975496
 20
-57.31734025209227
 30
0.0
 10
188.4030612266577
 20
-57.8654218483787
 30
0.0
 10
188.3045660014588
 20
-58.41353647306541
 30
0.0
 10
188.2062454320881
 20
-58.96168346431826
 30
0.0
  0
LINE
  5
1BE
330
6E
100
AcDbEntity
  8
0
 62
     7
370
    35
100
AcDbLine
 10
203.316839
 20
0.0
 30
0.0
 11
188.206245
 21
0.0
 31
0.0
  0
LINE
  5
1BF
330
6E
100
AcDbEntity
  8
0
 62
     7
370
    35
100
AcDbLine
 10
203.316839
 20
0.0
 30
0.0
 11
203.399369
 21
0.0
 31
0.0
  0
ELLIPSE
  5
1C0
330
6E
100
AcDbEntity
  8
0
 62
     7
370
    35
100
AcDbEllipse
 10
203.399368
 20
-10.0
 30
0.0
 11
-1.836970093589295E-15
 21
-10.0
 31
0.0
210
0.0
220
0.0
230
1.0
 40
0.971555
 41
1.570796326794897
 42
3.141592653589793
  0
LINE
  5
1C1
330
6E
100
AcDbEntity
  8
0
 62
     7
370
    35
100
AcDbLine
 10
213.114918
 20
-10.0
 30
0.0
 11
213.114918
 21
-20.0
 31
0.0
  0
ELLIPSE
  5
1C2
330
6E
100
AcDbEntity
  8
0
 62
     7
370
    35
100
AcDbEllipse
 10
203.399368
 20
-20.0
 30
0.0
 11
-1.836970093589295E-15
 21
-10.0
 31
0.0
210
0.0
220
0.0
230
1.0
 40
0.971555
 41
0.0
 42
1.570796326794896
  0
LINE
  5
1C3
330
6E
100
AcDbEntity
  8
0
 62
     7
370
    35
100
AcDbLine
 10
203.316839
 20
-30.0
 30
0.0
 11
203.399369
 21
-30.0
 31
0.0
  0
ELLIPSE
  5
1C4
330
6E
100
AcDbEntity
  8
0
 62
     7
370
    35
100
AcDbEllipse
 10
205.342484
 20
-15.0
 30
0.0
 11
-2.755455352142179E-16
 21
-1.5
 31
0.0
210
0.0
220
0.0
230
1.0
 40
0.971555
 41
1.570796326794897
 42
4.71238898038469
  0
ELLIPSE
  5
1C5
330
6E
100
AcDbEntity
  8
0
 62
     7
370
    35
100
AcDbEllipse
 10
205.342484
 20
-15.0
 30
0.0
 11
-2.755455352142179E-16
 21
-1.5
 31
0.0
210
0.0
220
0.0
230
1.0
 40
0.971555
 41
4.71238898038469
 42
7.853981633974483
  0
LINE
  5
1C6
330
6E
100
AcDbEntity
  8
0
 62
     7
370
    35
100
AcDbLine
 10
-60.513295
 20
-30.0
 30
0.0
 11
-60.430764
 21
-30.0
 31
0.0
  0
ELLIPSE
  5
1C7
330
6E
100
AcDbEntity
  8
0
 62
     7
370
    35
100
AcDbEllipse
 10
-60.513294
 20
-20.0
 30
0.0
 11
-1.836970093589295E-15
 21
-10.0
 31
0.0
210
0.0
220
0.0
230
1.0
 40
0.971555
 41
4.71238898038469
 42
6.283185307179586
  0
LINE
  5
1C8
330
6E
100
AcDbEntity
  8
0
 62
     7
370
    35
100
AcDbLine
 10
-70.228844
 20
-10.0
 30
0.0
 11
-70.228844
 21
-20.0
 31
0.0
  0
ELLIPSE
  5
1C9
330
6E
100
AcDbEntity
  8
0
 62
     7
370
    35
100
AcDbEllipse
 10
-60.513294
 20
-10.0
 30
0.0
 11
-1.836970093589295E-15
 21
-10.0
 31
0.0
210
0.0
220
0.0
230
1.0
 40
0.971555
 41
3.141592653589793
 42
4.712388980384689
  0
LINE
  5
1CA
330
6E
100
AcDbEntity
  8
0
 62
     7
370
    35
100
AcDbLine
 10
-60.513295
 20
0.0
 30
0.0
 11
-60.430764
 21
0.0
 31
0.0
  0
ELLIPSE
  5
1CB
330
6E
100
AcDbEntity
  8
0
 62
     7
370
    35
100
AcDbEllipse
 10
-62.456406
 20
-15.0
 30
0.0
 11
-2.755455352142179E-16
 21
-1.5
 31
0.0
210
0.0
220
0.0
230
1.0
 40
0.971555
 41
1.570796326794896
 42
4.71238898038469
  0
ELLIPSE
  5
1CC
330
6E
100
AcDbEntity
  8
0
 62
     7
370
    35
100
AcDbEllipse
 10
-62.456406
 20
-15.0
 30
0.0
 11
-2.755455352142179E-16
 21
-1.5
 31
0.0
210
0.0
220
0.0
230
1.0
 40
0.971555
 41
4.71238898038469
 42
7.853981633974483
  0
SPLINE
  5
1CD
330
6E
100
AcDbEntity
  8
0
 62
     7
370
    35
100
AcDbSpline
210
0.0
220
0.0
230
1.0
 70
     8
 71
     5
 72
    18
 73
    12
 74
     0
 42
0.000000001
 43
0.0
 40
0.0
 40
0.0
 40
0.0
 40
0.0
 40
0.0
 40
0.0
 40
14.47459388191816
 40
14.47459388191816
 40
14.47459388191816
 40
43.42827380068565
 40
43.42827380068565
 40
43.42827380068565
 40
48.25410221479469
 40
48.25410221479469
 40
48.25410221479469
 40
48.25410221479469
 40
48.25410221479469
 40
48.25410221479469
 10
-50.64353034884012
 20
-31.6412102840002
 30
0.0
 10
-50.27951606193356
 20
-33.27072734159847
 30
0.0
 10
-49.92688292735922
 20
-34.90261372948552
 30
0.0
 10
-49.58343276625023
 20
-36.53609732341761
 30
0.0
 10
-48.57580526774881
 20
-41.44309740280387
 30
0.0
 10
-47.62662212501507
 20
-46.36489979048032
 30
0.0
 10
-47.01144736552152
 20
-49.64719759423007
 30
0.0
 10
-46.30793887157282
 20
-53.48120915891175
 30
0.0
 10
-45.61567629572284
 20
-57.31734031320159
 30
0.0
 10
-45.51698646982074
 20
-57.86542188818566
 30
0.0
 10
-45.41849120612377
 20
-58.4135364916856
 30
0.0
 10
-45.32017064011454
 20
-58.961683464198
 30
0.0
  0
SPLINE
  5
1CE
330
6E
100
AcDbEntity
  8
0
 62
     7
370
    35
100
AcDbSpline
210
0.0
220
0.0
230
1.0
 70
     8
 71
     5
 72
    18
 73
    12
 74
     0
 42
0.000000001
 43
0.0
 40
0.0
 40
0.0
 40
0.0
 40
0.0
 40
0.0
 40
0.0
 40
2.392570470788449
 40
2.392570470788449
 40
2.392570470788449
 40
4.794262436259298
 40
4.794262436259298
 40
4.794262436259298
 40
5.992194382389738
 40
5.992194382389738
 40
5.992194382389738
 40
5.992194382389738
 40
5.992194382389738
 40
5.992194382389738
 10
-53.34302034114529
 20
-29.99999996959921
 30
0.0
 10
-53.07206675513957
 20
-30.00000000106377
 30
0.0
 10
-52.8011120888976
 20
-30.01842527950323
 30
0.0
 10
-52.53150588620956
 20
-30.05825890727282
 30
0.0
 10
-52.00048068165657
 20
-30.18906491109311
 30
0.0
 10
-51.51141565653761
 20
-30.43793742726676
 30
0.0
 10
-51.28243756403941
 20
-30.59643361976826
 30
0.0
 10
-50.98262531543137
 20
-30.88854223896514
 30
0.0
 10
-50.77506136343028
 20
-31.24835578190992
 30
0.0
 10
-50.71777135911989
 20
-31.37471656218232
 30
0.0
 10
-50.67365903238376
 20
-31.50633947862478
 30
0.0
 10
-50.64353034884014
 20
-31.64121028400021
 30
0.0
  0
LINE
  5
1CF
330
6E
100
AcDbEntity
  8
0
 62
     7
370
    35
100
AcDbLine
 10
-60.430764
 20
-30.0
 30
0.0
 11
-53.34302
 21
-30.0
 31
0.0
  0
LINE
  5
1D0
330
6E
100
AcDbEntity
  8
0
 62
     7
370
    35
100
AcDbLine
 10
-45.320171
 20
0.0
 30
0.0
 11
-60.430764
 21
0.0
 31
0.0
  0
ENDBLK
  5
70
330
6E
100
AcDbEntity
  8
0
100
AcDbBlockEnd
  0
ENDSEC
  0
SECTION
  2
ENTITIES
  0
INSERT
  5
1D1
330
1F
100
AcDbEntity
  8
0
370
     0
100
AcDbBlockReference
  2
BLOCK1
 10
687.764904
 20
435.5
 30
0.0
  0
INSERT
  5
1D2
330
1F
100
AcDbEntity
  8
0
370
     0
100
AcDbBlockReference
  2
BLOCK2
 10
567.799267
 20
392.305141
 30
0.0
  0
ENDSEC
  0
SECTION
  2
OBJECTS
  0
DICTIONARY
  5
C
330
0
100
AcDbDictionary
281
     1
  3
ACAD_GROUP
350
D
  3
ACAD_LAYOUT
350
1A
  3
ACAD_MLINESTYLE
350
17
  3
ACAD_PLOTSETTINGS
350
19
  3
ACAD_PLOTSTYLENAME
350
E
  3
ACAD_SCALELIST
350
47
  0
DICTIONARY
  5
D
102
{ACAD_REACTORS
330
C
102
}
330
C
100
AcDbDictionary
281
     1
  0
DICTIONARY
  5
1A
102
{ACAD_REACTORS
330
C
102
}
330
C
100
AcDbDictionary
281
     1
  3
Layout1
350
1E
  3
Layout2
350
26
  3
Model
350
22
  0
DICTIONARY
  5
17
102
{ACAD_REACTORS
330
C
102
}
330
C
100
AcDbDictionary
281
     1
  3
Standard
350
18
  0
DICTIONARY
  5
19
102
{ACAD_REACTORS
330
C
102
}
330
C
100
AcDbDictionary
281
     1
  0
ACDBDICTIONARYWDFLT
  5
E
102
{ACAD_REACTORS
330
C
102
}
330
C
100
AcDbDictionary
281
     1
  3
Normal
350
F
100
AcDbDictionaryWithDefault
340
F
  0
DICTIONARY
  5
47
102
{ACAD_REACTORS
330
C
102
}
330
C
100
AcDbDictionary
281
     1
  3
A0
350
48
  3
A1
350
49
  3
A2
350
4A
  3
A3
350
4B
  3
A4
350
4C
  3
A5
350
4D
  3
A6
350
4E
  3
A7
350
4F
  3
A8
350
50
  3
A9
350
51
  3
B0
350
52
  3
B1
350
53
  3
B2
350
54
  3
B3
350
55
  3
B4
350
56
  3
B5
350
57
  3
B6
350
58
  3
B7
350
59
  3
B8
350
5A
  3
B9
350
5B
  3
C0
350
5C
  3
C1
350
5D
  3
C2
350
5E
  3
C3
350
5F
  3
C4
350
60
  3
C5
350
61
  3
C6
350
62
  3
C7
350
63
  3
C8
350
64
  3
C9
350
65
  3
D0
350
66
  3
D1
350
67
  3
D2
350
68
  0
LAYOUT
  5
1E
102
{ACAD_REACTORS
330
1A
102
}
330
1A
100
AcDbPlotSettings
  1

  2
none_device
  4

  6

 40
0.0
 41
0.0
 42
0.0
 43
0.0
 44
0.0
 45
0.0
 46
0.0
 47
0.0
 48
0.0
 49
0.0
140
0.0
141
0.0
142
1.0
143
1.0
 70
  4784
 72
     0
 73
     0
 74
     5
  7

 75
    16
147
1.0
148
0.0
149
0.0
100
AcDbLayout
  1
Layout1
 70
     1
 71
     1
 10
0.0
 20
0.0
 11
420.0
 21
297.0
 12
0.0
 22
0.0
 32
0.0
 14
0.0
 24
0.0
 34
0.0
 15
213.114914
 25
0.0
 35
2.0
146
0.0
 13
0.0
 23
0.0
 33
0.0
 16
1.0
 26
0.0
 36
0.0
 17
0.0
 27
1.0
 37
0.0
 76
     0
330
1B
  0
LAYOUT
  5
26
102
{ACAD_REACTORS
330
1A
102
}
330
1A
100
AcDbPlotSettings
  1

  2
none_device
  4

  6

 40
0.0
 41
0.0
 42
0.0
 43
0.0
 44
0.0
 45
0.0
 46
0.0
 47
0.0
 48
0.0
 49
0.0
140
0.0
141
0.0
142
1.0
143
1.0
 70
  4784
 72
     0
 73
     0
 74
     5
  7

 75
    16
147
1.0
148
0.0
149
0.0
100
AcDbLayout
  1
Layout2
 70
     1
 71
     2
 10
0.0
 20
0.0
 11
0.0
 21
0.0
 12
0.0
 22
0.0
 32
0.0
 14
0.0
 24
0.0
 34
0.0
 15
0.0
 25
0.0
 35
0.0
146
0.0
 13
0.0
 23
0.0
 33
0.0
 16
1.0
 26
0.0
 36
0.0
 17
0.0
 27
1.0
 37
0.0
 76
     0
330
23
  0
LAYOUT
  5
22
102
{ACAD_REACTORS
330
1A
102
}
330
1A
100
AcDbPlotSettings
  1

  2
none_device
  4
Letter_(8.50_x_11.00_Inches)
  6

 40
6.35
 41
6.35
 42
6.350005
 43
6.350005
 44
215.9
 45
279.4
 46
0.0
 47
0.0
 48
0.0
 49
0.0
140
0.0
141
0.0
142
1.0
143
1.0
 70
  5808
 72
     0
 73
     0
 74
     0
  7

 75
     0
147
1.0
148
0.0
149
0.0
100
AcDbLayout
  1
Model
 70
     1
 71
     0
 10
0.0
 20
0.0
 11
420.0
 21
297.0
 12
0.0
 22
0.0
 32
0.0
 14
0.0
 24
0.0
 34
0.0
 15
213.114914
 25
0.0
 35
2.0
146
0.0
 13
0.0
 23
0.0
 33
0.0
 16
1.0
 26
0.0
 36
0.0
 17
0.0
 27
1.0
 37
0.0
 76
     0
330
1F
331
29
  0
MLINESTYLE
  5
18
102
{ACAD_REACTORS
330
17
102
}
330
17
100
AcDbMlineStyle
  2
Standard
 70
     0
  3

 62
   256
 51
90.0
 52
90.0
 71
     2
 49
0.5
 62
   256
  6
BYLAYER
 49
-0.5
 62
   256
  6
BYLAYER
  0
ACDBPLACEHOLDER
  5
F
102
{ACAD_REACTORS
330
E
102
}
330
E
  0
SCALE
  5
48
102
{ACAD_REACTORS
330
47
102
}
330
47
100
AcDbScale
 70
     0
300
1:1
140
1.0
141
1.0
290
     1
  0
SCALE
  5
49
102
{ACAD_REACTORS
330
47
102
}
330
47
100
AcDbScale
 70
     0
300
1:2
140
1.0
141
2.0
290
     0
  0
SCALE
  5
4A
102
{ACAD_REACTORS
330
47
102
}
330
47
100
AcDbScale
 70
     0
300
1:4
140
1.0
141
4.0
290
     0
  0
SCALE
  5
4B
102
{ACAD_REACTORS
330
47
102
}
330
47
100
AcDbScale
 70
     0
300
1:5
140
1.0
141
5.0
290
     0
  0
SCALE
  5
4C
102
{ACAD_REACTORS
330
47
102
}
330
47
100
AcDbScale
 70
     0
300
1:8
140
1.0
141
8.0
290
     0
  0
SCALE
  5
4D
102
{ACAD_REACTORS
330
47
102
}
330
47
100
AcDbScale
 70
     0
300
1:10
140
1.0
141
10.0
290
     0
  0
SCALE
  5
4E
102
{ACAD_REACTORS
330
47
102
}
330
47
100
AcDbScale
 70
     0
300
1:16
140
1.0
141
16.0
290
     0
  0
SCALE
  5
4F
102
{ACAD_REACTORS
330
47
102
}
330
47
100
AcDbScale
 70
     0
300
1:20
140
1.0
141
20.0
290
     0
  0
SCALE
  5
50
102
{ACAD_REACTORS
330
47
102
}
330
47
100
AcDbScale
 70
     0
300
1:30
140
1.0
141
30.0
290
     0
  0
SCALE
  5
51
102
{ACAD_REACTORS
330
47
102
}
330
47
100
AcDbScale
 70
     0
300
1:40
140
1.0
141
40.0
290
     0
  0
SCALE
  5
52
102
{ACAD_REACTORS
330
47
102
}
330
47
100
AcDbScale
 70
     0
300
1:50
140
1.0
141
50.0
290
     0
  0
SCALE
  5
53
102
{ACAD_REACTORS
330
47
102
}
330
47
100
AcDbScale
 70
     0
300
1:100
140
1.0
141
100.0
290
     0
  0
SCALE
  5
54
102
{ACAD_REACTORS
330
47
102
}
330
47
100
AcDbScale
 70
     0
300
2:1
140
2.0
141
1.0
290
     0
  0
SCALE
  5
55
102
{ACAD_REACTORS
330
47
102
}
330
47
100
AcDbScale
 70
     0
300
4:1
140
4.0
141
1.0
290
     0
  0
SCALE
  5
56
102
{ACAD_REACTORS
330
47
102
}
330
47
100
AcDbScale
 70
     0
300
8:1
140
8.0
141
1.0
290
     0
  0
SCALE
  5
57
102
{ACAD_REACTORS
330
47
102
}
330
47
100
AcDbScale
 70
     0
300
10:1
140
10.0
141
1.0
290
     0
  0
SCALE
  5
58
102
{ACAD_REACTORS
330
47
102
}
330
47
100
AcDbScale
 70
     0
300
100:1
140
100.0
141
1.0
290
     0
  0
SCALE
  5
59
102
{ACAD_REACTORS
330
47
102
}
330
47
100
AcDbScale
 70
     0
300
1/128" = 1'-0"
140
0.007812
141
12.0
290
     0
  0
SCALE
  5
5A
102
{ACAD_REACTORS
330
47
102
}
330
47
100
AcDbScale
 70
     0
300
1/64" = 1'-0"
140
0.015625
141
12.0
290
     0
  0
SCALE
  5
5B
102
{ACAD_REACTORS
330
47
102
}
330
47
100
AcDbScale
 70
     0
300
1/32" = 1'-0"
140
0.03125
141
12.0
290
     0
  0
SCALE
  5
5C
102
{ACAD_REACTORS
330
47
102
}
330
47
100
AcDbScale
 70
     0
300
1/16" = 1'-0"
140
0.0625
141
12.0
290
     0
  0
SCALE
  5
5D
102
{ACAD_REACTORS
330
47
102
}
330
47
100
AcDbScale
 70
     0
300
3/32" = 1'-0"
140
0.09375
141
12.0
290
     0
  0
SCALE
  5
5E
102
{ACAD_REACTORS
330
47
102
}
330
47
100
AcDbScale
 70
     0
300
1/8" = 1'-0"
140
0.125
141
12.0
290
     0
  0
SCALE
  5
5F
102
{ACAD_REACTORS
330
47
102
}
330
47
100
AcDbScale
 70
     0
300
3/16" = 1'-0"
140
0.1875
141
12.0
290
     0
  0
SCALE
  5
60
102
{ACAD_REACTORS
330
47
102
}
330
47
100
AcDbScale
 70
     0
300
1/4" = 1'-0"
140
0.25
141
12.0
290
     0
  0
SCALE
  5
61
102
{ACAD_REACTORS
330
47
102
}
330
47
100
AcDbScale
 70
     0
300
3/8" = 1'-0"
140
0.375
141
12.0
290
     0
  0
SCALE
  5
62
102
{ACAD_REACTORS
330
47
102
}
330
47
100
AcDbScale
 70
     0
300
1/2" = 1'-0"
140
0.5
141
12.0
290
     0
  0
SCALE
  5
63
102
{ACAD_REACTORS
330
47
102
}
330
47
100
AcDbScale
 70
     0
300
3/4" = 1'-0"
140
0.75
141
12.0
290
     0
  0
SCALE
  5
64
102
{ACAD_REACTORS
330
47
102
}
330
47
100
AcDbScale
 70
     0
300
1" = 1'-0"
140
1.0
141
12.0
290
     0
  0
SCALE
  5
65
102
{ACAD_REACTORS
330
47
102
}
330
47
100
AcDbScale
 70
     0
300
1-1/2" = 1'-0"
140
1.5
141
12.0
290
     0
  0
SCALE
  5
66
102
{ACAD_REACTORS
330
47
102
}
330
47
100
AcDbScale
 70
     0
300
3" = 1'-0"
140
3.0
141
12.0
290
     0
  0
SCALE
  5
67
102
{ACAD_REACTORS
330
47
102
}
330
47
100
AcDbScale
 70
     0
300
6" = 1'-0"
140
6.0
141
12.0
290
     0
  0
SCALE
  5
68
102
{ACAD_REACTORS
330
47
102
}
330
47
100
AcDbScale
 70
     0
300
1'-0" = 1'-0"
140
12.0
141
12.0
290
     0
  0
ENDSEC
  0
EOF
